<?xml version="1.0" encoding="UTF-8" standalone="no"?>
<!-- Created with Inkscape (http://www.inkscape.org/) -->

<svg
   version="1.1"
   id="svg306"
   width="209.90277mm"
   height="297.03891mm"
   viewBox="0 0 793.3333 1122.6667"
   sodipodi:docname="VIM-878_measurements.svg"
   inkscape:version="1.2 (dc2aedaf03, 2022-05-15)"
   xmlns:inkscape="http://www.inkscape.org/namespaces/inkscape"
   xmlns:sodipodi="http://sodipodi.sourceforge.net/DTD/sodipodi-0.dtd"
   xmlns="http://www.w3.org/2000/svg"
   xmlns:svg="http://www.w3.org/2000/svg">
  <defs
     id="defs310" />
  <sodipodi:namedview
     id="namedview308"
     pagecolor="#ffffff"
     bordercolor="#666666"
     borderopacity="1.0"
     inkscape:showpageshadow="2"
     inkscape:pageopacity="0.0"
     inkscape:pagecheckerboard="0"
     inkscape:deskcolor="#d1d1d1"
     showgrid="false"
     showguides="true"
     inkscape:document-units="mm"
     inkscape:zoom="16"
     inkscape:cx="277.6875"
     inkscape:cy="348.1875"
     inkscape:window-width="3840"
     inkscape:window-height="2066"
     inkscape:window-x="-11"
     inkscape:window-y="-11"
     inkscape:window-maximized="1"
     inkscape:current-layer="g312">
    <sodipodi:guide
       position="487.51998,984.42667"
       orientation="1,0"
       id="guide4265"
       inkscape:locked="false" />
    <sodipodi:guide
       position="226.5,811.48041"
       orientation="0,1"
       id="guide23007"
       inkscape:locked="false" />
  </sodipodi:namedview>
  <g
     id="g312"
     inkscape:groupmode="layer"
     inkscape:label="VIM-878"
     transform="matrix(1.3333333,0,0,-1.3333333,0,1122.6667)">
    <path
       id="path632"
       style="fill:none;stroke:#000000;stroke-width:0.0566927;stroke-linecap:round;stroke-linejoin:round;stroke-miterlimit:10;stroke-dasharray:none;stroke-opacity:1"
       d="m 131.87045,741.3659 v 1.08261 l -0.97492,0.10664 0.10631,-0.10664 0.1063,-0.31956 v -0.31956 l -0.1063,-0.33741 -0.2127,-0.2129 -0.31908,-0.10665 h -0.23056 l -0.31905,0.10665 -0.21272,0.2129 -0.1063,0.33741 v 0.31956 l 0.1063,0.31956 0.10631,0.10664 0.2127,0.10664 m -0.21262,-2.25431 -0.10642,0.10663 -0.10631,-0.10663 0.10631,-0.12412 m 2.1626,-1.40222 -0.1063,0.31957 -0.21271,0.1241 h -0.23055 l -0.21272,-0.1241 -0.1063,-0.21293 -0.10642,-0.42595 -0.1063,-0.31956 -0.21273,-0.23075 -0.2127,-0.10664 h -0.33692 l -0.21271,0.10664 -0.10631,0.12409 -0.1063,0.31956 v 0.42597 l 0.1063,0.31957 0.10631,0.1241 0.21271,0.10664 h 0.33692 l 0.2127,-0.10664 0.21273,-0.23077 0.1063,-0.31956 0.10642,-0.42595 0.1063,-0.21292 0.21272,-0.12409 h 0.23055 l 0.21271,0.12409 0.1063,0.31956 v 0.42597 m 0,-2.27174 -0.1063,0.3374 -0.33693,0.21291 -0.53177,0.10664 h -0.31906 l -0.54951,-0.10664 -0.31906,-0.21291 -0.1063,-0.3374 v -0.21292 l 0.1063,-0.31957 0.31906,-0.21293 0.54951,-0.10663 h 0.31906 l 0.53177,0.10663 0.33693,0.21293 0.1063,0.31957 v 0.21292 m -0.79769,-3.5851 h -0.67355 l 0.33691,-2.04101 0.33691,2.04101 m -2.7e-4,12.37036 h -0.67355 l 0.33691,2.04104 0.33691,-2.04104 m 70.78035,-72.80239 -0.10631,0.10663 -0.1063,-0.10663 0.1063,-0.10664 m 1.84351,-2.16507 0.2127,0.10663 0.10631,0.31958 v 0.21291 l -0.10631,0.33739 -0.33691,0.21293 -0.53177,0.10664 h -0.53179 l -0.44315,-0.10664 -0.2127,-0.21293 -0.1063,-0.33739 v -0.10664 l 0.1063,-0.31956 0.2127,-0.21291 0.31907,-0.10663 h 0.12421 l 0.31906,0.10663 0.21271,0.21291 0.10631,0.31956 v 0.10664 l -0.10631,0.33739 -0.21271,0.21293 -0.31906,0.10664 m 1.50673,-2.8047 -0.1063,0.31954 -0.33692,0.21294 -0.5318,0.10662 h -0.31906 l -0.54952,-0.10662 -0.31906,-0.21294 -0.1063,-0.31954 v -0.23078 l 0.1063,-0.31957 0.31906,-0.21291 0.54952,-0.10663 h 0.31906 l 0.5318,0.10663 0.33692,0.21291 0.1063,0.31957 v 0.23078 m -47.29345,78.62377 H 129.6014 M 155.48162,730.9833 H 129.6014 m 1.13449,14.41137 v -1.70379 m 0,-10.66656 v 1.70381 m 70.90468,-23.00146 h 2.26895 v -0.97612 l -0.1063,-0.31958 -0.10642,-0.10663 -0.23055,-0.10664 h -0.31907 l -0.2127,0.10664 -0.1063,0.10663 -0.10632,0.31958 v 0.97612 m -1.08119,-2.27174 h 2.26895 m 0,-1.61507 h -2.26895 m 2.26895,0.74541 v -1.50858 m -0.54952,-2.05878 0.23058,0.10664 0.21269,0.21291 0.10642,0.23076 v 0.42595 l -0.10642,0.21291 -0.21269,0.21294 -0.23058,0.10664 -0.31905,0.1241 h -0.53182 l -0.33692,-0.1241 -0.2127,-0.10664 -0.2127,-0.21294 -0.10631,-0.21291 v -0.42595 l 0.10631,-0.23076 0.2127,-0.21291 0.2127,-0.10664 m -0.53164,-0.63891 h 2.26895 m 0,-1.52633 h -2.26895 m 1.18763,1.52633 v -1.52633 m 1.08132,-4.2063 v 1.08264 l -0.97497,0.10665 0.10632,-0.10665 0.1063,-0.33702 v -0.31957 l -0.1063,-0.31956 -0.21271,-0.21292 -0.31907,-0.10663 h -0.23054 l -0.31907,0.10663 -0.2127,0.21292 -0.10631,0.31956 v 0.31957 l 0.10631,0.33702 0.10631,0.10665 0.2127,0.10662 m -0.21259,-2.27207 -0.10632,0.10662 -0.1063,-0.10662 0.1063,-0.10664 m 2.16261,-1.40191 -0.10631,0.31955 -0.2127,0.10664 h -0.23057 l -0.21271,-0.10664 -0.1063,-0.21291 -0.10631,-0.44368 -0.10631,-0.31957 -0.21271,-0.21292 -0.21271,-0.10663 h -0.33691 l -0.21271,0.10663 -0.10631,0.10663 -0.10641,0.31956 v 0.44373 l 0.10641,0.31956 0.10631,0.10663 0.21271,0.10663 h 0.33691 l 0.21271,-0.10663 0.21271,-0.21292 0.10631,-0.31956 0.10631,-0.44371 0.1063,-0.21293 0.21271,-0.10665 h 0.23057 l 0.2127,0.10665 0.10631,0.31958 v 0.44371 m 0,-2.27259 -0.10631,0.31959 -0.33691,0.2129 -0.5318,0.10663 h -0.31906 l -0.54952,-0.10663 -0.31906,-0.2129 -0.1063,-0.31959 v -0.21291 l 0.1063,-0.33703 0.31906,-0.21291 0.54952,-0.10664 h 0.31906 l 0.5318,0.10664 0.33691,0.21291 0.10631,0.33703 v 0.21291 m -2.26895,-3.56732 2.26895,-1.52632 m 0,1.52632 -2.26895,-1.52632 m 2.26895,-2.69773 v -1.50858 l -2.26895,1.08262 m 1.29398,-3.78031 v -1.95229 m -0.65586,1.95229 v -1.95229 m 1.63083,-3.9933 -1.50673,1.06488 v -1.61506 m 1.50673,0.55018 h -2.26895 m 2.26895,-1.73931 -0.10631,0.31958 -0.33691,0.23074 -0.5318,0.10665 h -0.31906 l -0.54952,-0.10665 -0.31906,-0.23074 -0.1063,-0.31958 v -0.21292 l 0.1063,-0.31956 0.31906,-0.23075 0.54952,-0.10664 h 0.31906 l 0.5318,0.10664 0.33691,0.23075 0.10631,0.31956 v 0.21292 m -0.79771,71.18734 h -0.67359 l 0.33692,2.04103 0.33689,-2.04103 m -2.2e-4,-111.12041 h -0.67359 l 0.33692,-2.05876 0.33689,2.05876 m -19.90672,130.37704 v 1.84578 l 0.62044,-1.24234 0.60268,1.24234 v -1.84578 m 0.62043,1.84578 h 0.62043 m -0.31911,0 v -1.84578 m -0.30132,0 h 0.62043 m 0.60269,0 v 1.84578 l 1.24079,-1.84578 v 1.84578 m 2.44623,-0.92291 h 0.92175 l 0.30121,-0.31955 v -0.30175 l -0.30121,-0.30172 h -0.62038 l -0.30121,0.30172 v 0.92292 l 0.62038,0.62119 h 0.30121 m 0.92179,-1.84568 v 0.30172 m 0.92174,-0.30172 -0.30119,0.30172 v 1.22465 l 0.30119,0.31957 h 0.30121 l 0.31908,-0.31957 v -1.22465 l -0.31908,-0.30172 h -0.30121 m 1.54219,0 -0.31907,0.30172 v 1.22465 l 0.31907,0.31957 h 0.3012 l 0.30121,-0.31957 v -1.22465 l -0.30121,-0.30172 h -0.3012 m -36.5159,-132.4358 h 46.15895 m -46.15895,115.2202 h 46.15895 M 202.7751,634.27421 v 32.63862 m 0,78.48179 v -32.65637 m -23.9126,53.1376 v -0.62116 l 1.84351,0.31954 -1.84351,0.30175 m 20.70415,-1.3e-4 v -0.62116 l -1.84349,0.31954 1.84349,0.30175 m -20.70415,-0.30186 h -1.8258 m -28.91139,-3.12363 v -11.97993 m 36.83495,11.97993 v -11.97993 m 12.7629,7.52517 v 9.40645 m -17.01715,-9.40645 v 9.40645 m 18.86064,-1.82806 h 1.84353 m -35.55872,17.4286 0.42546,-0.40823 m -0.3191,0.2485 0.1417,-0.1598 m 1.66641,-0.39043 -1.22311,2.85745 -1.22312,-2.85745 m 4.20111,0.17751 v 1.2601 m 0.53177,-0.94064 -1.04584,0.62119 m 0,-0.62119 1.04584,0.62119 m -3.27932,2.71545 -0.19485,0.0711 -0.1417,0.14195 -0.0711,0.19507 v 0.0711 l 0.0711,0.21291 0.1417,0.1241 0.19485,0.0711 h 0.0712 l 0.19484,-0.0711 0.14167,-0.1241 0.0711,-0.21291 v -0.0711 l -0.0711,-0.19507 -0.14167,-0.14195 -0.26588,-0.0711 h -0.33689 l -0.33694,0.0711 -0.2127,0.14195 -0.0532,0.19507 v 0.14195 l 0.0532,0.19507 0.14167,0.0711 m 51.92025,-105.06796 -1.04583,1.02942 m 1.08129,-0.99388 -1.04585,1.02937 m 1.06359,-0.97614 -1.01041,1.01162 m 1.04584,-0.9584 -0.99267,0.99387 m 1.01041,-0.94061 -0.95723,0.95839 m 0.99267,-0.90517 -0.9395,0.94066 m 0.95722,-0.8874 -0.90403,0.90516 m 0.90403,-0.83416 -0.83313,0.83416 m 0.85083,-0.76317 -0.77991,0.78093 m 0.77991,-0.70993 -0.70903,0.70993 m 0.69133,-0.62119 -0.60268,0.60343 m 0.58496,-0.49697 -0.4786,0.47921 m 0.42542,-0.33721 -0.28375,0.28388 m 0.14197,-1.17128 -1.02816,1.02937 m 0.99267,-1.06486 -1.02811,1.02937 m 0.99267,-1.06485 -1.02814,1.02937 m 0.97495,-1.06489 -1.0104,1.01165 m 0.95723,-1.04715 -0.97496,0.9939 m 0.92179,-1.01162 -0.95723,0.95836 m 0.90405,-0.97612 -0.92179,0.92287 m 0.85087,-0.94062 -0.86856,0.86965 m 0.81541,-0.88738 -0.83315,0.83413 m 0.76221,-0.83413 -0.76221,0.74538 m 0.6736,-0.74538 -0.6736,0.67438 m 0.58494,-0.65665 -0.5672,0.56791 m 0.46086,-0.5324 -0.42543,0.42595 m 0.24819,-0.33721 -0.15955,0.15979 m -0.38996,1.65051 2.8539,-1.22465 -2.8539,-1.20685 m -49.86372,101.39449 0.23054,0.034 0.19487,0.10663 0.15954,0.15979 0.1063,0.19507 0.0342,0.23076 -0.0342,0.23075 -0.1063,0.21293 -0.15954,0.15977 -0.19487,0.10665 -0.23054,0.034 -0.23056,-0.034 -0.19486,-0.10665 -0.17738,-0.15977 -0.0886,-0.21293 -0.0341,-0.23075 0.0341,-0.23076 0.0886,-0.19507 0.17738,-0.15979 0.19486,-0.10663 0.23056,-0.034 m -0.47864,1.27785 1.02814,-1.02937 m -0.99265,1.06491 1.0281,-1.02942 m -0.97493,1.06489 1.01039,-1.01166 m -0.97496,1.04714 0.99266,-0.99389 m -0.93947,1.01167 0.97494,-0.95841 m -0.92178,0.97613 0.93949,-0.92288 m -0.86857,0.94065 0.88631,-0.8874 m -0.83312,0.90515 0.85086,-0.83417 m -0.77995,0.85189 0.77995,-0.7809 m -0.69134,0.7809 0.69134,-0.70992 m -0.60273,0.6922 0.60273,-0.60346 m -0.51407,0.58571 0.47859,-0.47922 m -0.3368,0.40819 0.28373,-0.28387 m -1.17004,0.15966 1.04584,-1.02938 m -1.08128,0.99388 1.04584,-1.04713 m -1.08127,0.99389 1.0281,-1.01166 m -1.04583,0.97617 0.99267,-1.01164 m -1.02811,0.95841 0.99265,-0.99391 m -1.01038,0.94065 0.95722,-0.95841 m -0.99268,0.90515 0.92175,-0.9229 m -0.92175,0.85195 0.86858,-0.86969 m -0.88633,0.79866 0.81542,-0.81641 m -0.81542,0.74544 0.7445,-0.74544 m -0.7445,0.67443 0.67362,-0.67443 m -0.67362,0.58568 0.56727,-0.56793 m 0.0176,-187.57892 -1.02812,1.02938 m 0.99268,-1.06488 -1.02811,1.02939 m 0.97493,-1.06489 -1.01041,1.01165 m 0.95723,-1.04712 -0.99267,1.01162 m 0.95723,-1.0294 -0.97497,0.97616 m 0.90406,-0.99389 -0.92178,0.92289 m 0.86861,-0.94065 -0.88632,0.88739 m 0.81539,-0.90515 -0.83312,0.83417 m 0.76221,-0.85189 -0.77996,0.78088 m 0.70909,-0.78088 -0.70909,0.70991 m 0.62043,-0.69219 -0.60268,0.60346 m 0.49634,-0.5857 -0.47861,0.47921 m 0.3545,-0.40818 -0.28374,0.28387 m 1.15235,-0.15966 -1.02813,1.04714 m 1.08131,-1.01165 -1.04584,1.04714 m 1.06355,-0.99391 -1.01038,1.02939 m 1.04586,-0.99387 -1.01041,1.01164 m 1.04583,-0.95842 -0.99267,0.9939 m 1.01042,-0.94065 -0.95723,0.9584 m 0.97492,-0.90514 -0.92173,0.92287 m 0.93948,-0.85192 -0.86859,0.86968 m 0.88632,-0.79866 -0.8154,0.81643 m 0.8154,-0.74546 -0.7445,0.74546 m 0.7445,-0.67444 -0.67361,0.67444 m 0.65588,-0.5857 -0.56726,0.56793 m 0.53182,-0.44372 -0.40773,0.42596 m 0.31908,-0.2662 -0.15955,0.15979 m -0.4254,-1.33115 0.23056,0.0341 0.19484,0.10663 0.15955,0.15978 0.1063,0.21292 0.0342,0.23076 -0.0342,0.23076 -0.1063,0.19507 -0.15955,0.1598 -0.19484,0.10662 -0.23056,0.034 -0.23057,-0.034 -0.21271,-0.10662 -0.15953,-0.1598 -0.10631,-0.19507 -0.0342,-0.23076 0.0342,-0.23076 0.10631,-0.21292 0.15953,-0.15978 0.21271,-0.10663 0.23057,-0.0341 m 0,-1.13588 1.20537,2.85744 m -4.48473,-0.1775 v -1.26009 m -0.53178,0.94063 1.04585,-0.62117 m 0,0.62117 -1.04585,-0.62117 m 3.81114,-1.73931 -1.22312,2.85744 m 57.37961,86.8766 0.0711,-0.14194 0.19484,-0.19507 h -1.41807 m 1.08134,-0.81663 h 0.0711 l 0.1417,-0.0711 0.0532,-0.0711 0.0711,-0.14196 v -0.26605 l -0.0711,-0.14194 -0.0532,-0.0531 -0.1417,-0.0711 h -0.14166 l -0.12421,0.0711 -0.21272,0.12412 -0.67359,0.69214 v -0.95837 m -1.80817,-2.41403 h -1.27627 m 0.9572,0.51473 -0.63813,-1.04713 m 0.63813,0 -0.63813,1.04713 m -0.76222,2.18303 0.21271,0.034 0.21272,0.10663 0.15952,0.15979 0.10631,0.21291 0.0342,0.21294 -0.0342,0.23074 -0.10631,0.21293 -0.15952,0.15976 -0.21272,0.10665 -0.21271,0.034 -0.23055,-0.034 -0.21271,-0.10665 -0.15955,-0.15976 -0.1063,-0.21293 -0.0342,-0.23074 0.0342,-0.21294 0.1063,-0.21291 0.15955,-0.15979 0.21271,-0.10663 0.23055,-0.034 M 203.90957,556.05867 h 1.2231 m -0.62042,-0.62118 v 1.24236 m 0.62042,-1.24236 -1.2231,1.24236 m 1.2231,0 -1.2231,-1.24236 m -92.22929,126.54344 0.12421,0.0711 0.0711,0.21293 v 0.12411 l -0.0711,0.21293 -0.19486,0.12411 -0.33692,0.0711 h -0.33692 l -0.28372,-0.0711 -0.12421,-0.12411 -0.0712,-0.21293 v -0.0711 l 0.0712,-0.19508 0.12421,-0.14195 0.21268,-0.053 h 0.0712 l 0.19485,0.053 0.14167,0.14195 0.0711,0.19508 v 0.0711 l -0.0711,0.21293 -0.14167,0.12411 -0.19485,0.0711 m 4.99871,3.05308 h -1.25856 m 0.93949,0.51469 -0.63812,-1.04714 m 0.63812,0 -0.63812,1.04714 m 1.13445,-2.78644 -2.8539,-1.22465 2.8539,-1.20685 m -0.97491,0.47923 0.2127,0.034 0.2127,0.10663 0.15953,0.15979 0.10631,0.21291 0.0342,0.21294 -0.0342,0.23074 -0.10631,0.21293 -0.15953,0.15977 -0.2127,0.10664 -0.2127,0.034 -0.23057,-0.034 -0.21272,-0.10664 -0.15951,-0.15977 -0.10643,-0.21293 -0.0341,-0.23074 0.0341,-0.21294 0.10643,-0.21291 0.15951,-0.15979 0.21272,-0.10663 0.23057,-0.034 m -0.54953,0.24842 1.02811,1.02942 m -1.06358,-0.99388 1.02815,1.02937 m -1.06359,-0.97612 1.01041,1.0116 m -1.04586,-0.9584 0.99268,0.99387 m -1.0104,-0.94061 0.95721,0.95839 m -0.97495,-0.90517 0.92179,0.94066 m -0.95723,-0.8874 0.90405,0.90516 m -0.90405,-0.83415 0.83312,0.83415 m -0.85086,-0.76316 0.77997,0.78092 m -0.77997,-0.70993 0.70904,0.70993 m -0.6913,-0.62119 0.60269,0.60343 m -0.58495,-0.49697 0.4786,0.47921 m -0.42544,-0.33721 0.30122,0.28388 m -0.15941,-1.17128 1.02813,1.02938 m -0.99269,-1.06487 1.02814,1.02938 m -0.97493,-1.06486 1.01036,1.02938 m -0.97493,-1.0649 1.01041,1.01165 m -0.95721,-1.04714 0.99265,0.99389 m -0.93949,-1.01162 0.95723,0.95836 m -0.90404,-0.97611 0.92173,0.92286 m -0.85082,-0.94062 0.86857,0.86965 m -0.81539,-0.88737 0.83313,0.83413 m -0.74451,-0.83413 0.74451,0.74538 m -0.6736,-0.74538 0.6736,0.67437 m -0.58499,-0.65665 0.56725,0.56791 m -0.46088,-0.5324 0.42544,0.42595 m -0.24819,-0.33721 0.15953,0.15979 m 51.01594,-89.82286 v -0.74541 l -0.54954,0.40819 v -0.21293 l -0.0711,-0.12409 -0.0711,-0.0711 -0.19485,-0.0711 h -0.14167 l -0.19486,0.0711 -0.14168,0.14196 -0.0711,0.19508 v 0.21292 l 0.0711,0.19508 0.0711,0.0711 0.1242,0.0711 m 39.2629,-43.18074 h -0.62042 l 0.30121,-1.84578 0.31907,1.84578 m 1.4e-4,14.34042 h -0.62042 l 0.30121,1.84579 0.31907,-1.84579 m -54.91551,19.36311 v 1.84579 h 0.62037 m 0,-1.84579 h -0.62037 m 3.06659,1.52634 0.31908,0.31957 h 0.60268 l 0.31908,-0.31957 v -0.30173 l -0.31908,-0.30172 h -0.60268 l -0.31908,-0.30174 v -0.62128 h 1.24087 m 0.60267,1.52637 0.31907,0.31957 h 0.60268 l 0.31908,-0.31957 v -0.30172 l -0.31908,-0.30173 h -0.60268 l -0.31907,-0.30173 v -0.62119 h 1.24083 m 0.60267,3e-5 v 0.30173 m 0.92178,-0.30173 -0.3012,0.30173 v 1.22465 l 0.3012,0.31955 h 0.31907 l 0.30121,-0.31955 v -1.22465 l -0.30121,-0.30173 h -0.31907 m 1.54218,0 -0.31905,0.30173 v 1.22465 l 0.31905,0.31955 h 0.3012 l 0.30123,-0.31955 v -1.22465 l -0.30123,-0.30173 h -0.3012 m 3.68703,0.30169 v 1.22465 m 0.60268,-0.60345 h -1.2231 m 3.68708,-0.92289 1.22306,1.84579 m -1.22306,0 1.22306,-1.84579 m 0.62043,0 v 0.30173 m 0.60269,-0.30173 1.24084,1.84579 m -1.24084,0 1.24084,-1.84579 m 0.6027,0 1.24085,1.84579 m -1.24085,0 1.24085,-1.84579 m 2.44616,1.84579 h 0.62044 v -1.84579 h -0.62044 m 1.22312,0.30169 h 1.24086 m -0.62045,0.3195 v 1.2246 m -0.62041,-0.62117 h 1.24086 m 0.92174,-1.22462 -0.31907,0.30173 v 1.22465 l 0.31907,0.31955 h 0.30122 l 0.3012,-0.31955 v -1.22465 l -0.3012,-0.30173 h -0.30122 m 1.2231,0 v 0.30173 m 0.62044,1.22461 0.3012,0.31957 h 0.62039 l 0.30121,-0.31957 v -0.30172 l -0.30121,-0.30185 h -0.31905 m 0.31919,0 0.30121,-0.30173 v -0.31958 l -0.30121,-0.30172 h -0.62042 l -0.3012,0.30172 m 2.14473,-0.30158 -0.30119,0.30172 v 1.22465 l 0.30119,0.31957 h 0.30123 l 0.31905,-0.31957 v -1.22465 l -0.31905,-0.30172 h -0.30123 m -8.36676,5.18244 v -1.0649 m -0.40766,0.79867 0.79765,-0.53247 m 0,0.53247 -0.79765,-0.53247 m 1.68396,0.7987 v -1.0649 m -0.40769,0.79867 0.79765,-0.53247 m 0,0.53247 -0.79765,-0.53247 m 17.31845,-21.90106 h 15.29767 m -3.19069,-18.03199 h 3.19069 m -1.8435,16.1862 v -5.80358 m 0,-8.53683 v 5.80361 m -70.90468,29.12453 v -0.60343 l -1.84352,0.30173 1.84352,0.30173 m 65.87045,-3e-5 v -0.60343 l 1.84349,0.30173 -1.84349,0.30173 m -17.47802,-30.08296 0.23057,-0.19508 0.86859,0.0531 0.62041,0.67445 -0.0342,0.44369 -0.46087,0.40819 -0.42545,-0.0341 -0.21271,-0.23075 0.0342,-0.42596 0.69133,-0.60346 m 0.0709,-1.31466 -0.019,0.44372 0.8154,0.90514 0.42544,0.034 0.23057,-0.2129 0.019,-0.42596 -0.81541,-0.92288 -0.42543,-0.019 -0.23057,0.19508 m 0.92176,-0.81377 0.19486,0.23077 m 0.49649,-0.83418 -0.0342,0.42595 0.81539,0.92292 0.44317,0.019 0.23056,-0.19507 0.019,-0.42594 -0.81541,-0.92288 -0.42541,-0.0341 -0.23057,0.21294 m 1.92966,0.33447 0.44315,0.019 0.019,-0.42595 -0.42542,-0.034 -0.0341,0.44371 m 0.1039,-1.74193 0.92176,-0.81641 m -0.26589,0.63892 0.8154,0.9229 m -0.86858,-0.0532 0.92175,-0.81642 m -0.14179,-1.10038 0.019,-0.44368 0.46091,-0.40823 0.44313,0.034 0.40769,0.46147 -0.0341,0.42595 -0.69131,0.6212 0.40769,0.46145 0.92177,-0.81644 m -0.76471,-1.79118 0.19486,0.23076 m 0.49645,-0.85195 -0.0342,0.44373 0.8154,0.92288 0.44314,0.019 0.23057,-0.19507 0.019,-0.44372 -0.81541,-0.92289 -0.4254,-0.019 -0.23057,0.19507 m 1.92968,0.33722 0.44315,0.0341 0.019,-0.44372 -0.42541,-0.019 -0.0342,0.42594 m 9.10874,21.17603 v 17.46402 m -69.55747,-17.46402 v 17.46402 m 67.71397,-1.84579 h -15.38633 m -50.48411,0 h 15.38629 m 50.07645,-38.15823 -0.0342,-0.62119 1.86128,0.23076 -1.82581,0.39047 m -18.47192,17.85448 0.60269,0.019 -0.38994,1.84579 -0.21271,-1.86353 m 21.73224,39.6656 0.30124,0.31956 h 0.62042 l 0.3012,-0.31956 v -0.30174 l -0.3012,-0.30172 h -0.62042 l -0.30124,-0.31957 v -0.60341 h 1.22312 m 0.60269,9e-5 v 0.30174 m 0.62044,-3e-5 0.30119,-0.30174 h 0.62043 l 0.3012,0.30174 v 0.62118 l -0.3012,0.30172 h -0.92178 v 0.62119 h 1.2231 m 0.92191,-1.8458 -0.30121,0.30174 v 1.22464 l 0.30121,0.31959 h 0.31905 l 0.30122,-0.31959 v -1.22464 l -0.30122,-0.30174 h -0.31905 m -5.12285,-14.69537 0.15952,0.10663 0.21272,0.23075 0.0532,0.12412 0.019,0.14195 m -0.92307,-4e-5 h -1.87897 m 2.80076,0 -0.019,0.1241 -0.0532,0.14194 -0.2127,0.23077 -0.28372,0.15978 -0.37225,0.0531 -0.37224,-0.0531 -0.30121,-0.15978 -0.21271,-0.23077 -0.0342,-0.14194 -0.019,-0.1241 0.019,-0.14196 0.0342,-0.12409 0.21271,-0.23076 0.19486,-0.12411 m -1.38129,0.62092 v -1.08261 m -67.1999,0.47919 0.17738,0.10663 0.19485,0.23075 0.0532,0.12412 0.019,0.14195 m -0.92303,-4e-5 h -1.87897 m 2.80072,0 -0.019,0.1241 -0.0532,0.14194 -0.19486,0.23077 -0.30121,0.15978 -0.37224,0.0531 -0.37224,-0.0531 -0.28374,-0.15978 -0.2127,-0.23077 -0.0532,-0.14194 -0.019,-0.1241 0.019,-0.14196 0.0532,-0.12409 0.2127,-0.23076 0.17739,-0.12411 m -1.38162,0.62092 v -1.08261 m 54.98656,-21.10241 h -5.90279 m 21.92725,-16.04423 v -5.91006 m -19.99512,20.10848 0.14169,-1.17137 0.21271,-1.17135 0.28374,-1.13586 0.33691,-1.13588 0.40772,-1.10037 0.4786,-1.08268 m 11.75236,-10.41805 1.099,-0.33703 1.13446,-0.2839 1.15221,-0.19507 1.15224,-0.14196 m 0.51401,57.52091 v -0.62117 l -1.84349,0.31956 1.84349,0.30173 m -10.77752,-1.2e-4 v -0.62117 l 1.84355,0.31956 -1.84355,0.30173 m -29.9749,0.30162 0.31905,0.31956 v -1.8458 m -0.31905,-1.1e-4 h 0.62038 m 0.62041,1.8458 h 1.22311 l -0.92175,-1.8458 m 1.54218,0 v 0.30174 m 0.92174,-0.30174 -0.31906,0.30174 v 1.22464 l 0.31906,0.31959 h 0.30123 l 0.30119,-0.31959 v -1.22464 l -0.30119,-0.30174 h -0.30123 m 1.52444,0 -0.30121,0.30174 v 1.22464 l 0.30121,0.31959 h 0.31907 l 0.30121,-0.31959 v -1.22464 l -0.30121,-0.30174 h -0.31907 m 1.24085,0.30171 h 1.22312 m -0.62045,0.30173 v 1.24236 m -0.60267,-0.62119 h 1.22312 m 0.92174,-1.22461 -0.31905,0.30174 v 1.22464 l 0.31905,0.31959 h 0.30121 l 0.3012,-0.31959 v -1.22464 l -0.3012,-0.30174 h -0.30121 m 1.2231,0 v 0.30174 m 0.62044,1.22461 0.30121,0.31956 h 0.62043 l 0.30119,-0.31956 v -0.30174 l -0.30119,-0.30172 h -0.62043 l -0.30121,-0.31957 v -0.60342 h 1.2231 m 0.92175,10e-5 -0.3012,0.30174 v 1.22464 l 0.3012,0.31959 h 0.30122 l 0.31906,-0.31959 v -1.22464 l -0.31906,-0.30174 h -0.30122 m 18.91384,5.20015 v -6.12306 m 7.09048,6.12306 v -6.12306 m -8.93403,1.8458 h -1.84349 m 12.62101,0 h 1.84352 m -12.62104,0.30172 v -0.62117 l 1.84355,0.31956 -1.84355,0.30173 m -44.49268,-1.2e-4 v -0.62117 l -1.84348,0.31956 1.84348,0.30173 m 4.18342,-44.38795 0.3012,0.30172 h 0.62039 l 0.3012,-0.30172 v -0.31958 l -0.3012,-0.30173 H 149.083 m 0.31921,1.5e-4 0.3012,-0.30172 v -0.31957 l -0.3012,-0.30172 h -0.62043 l -0.3012,0.30172 m 1.84338,-0.30161 v 0.30173 m 0.92178,-0.30173 -0.31906,0.30173 v 1.24233 l 0.31906,0.30172 h 0.30122 l 0.3012,-0.30172 v -1.24233 l -0.3012,-0.30173 h -0.30122 m 1.52443,0 -0.30119,0.30173 v 1.24233 l 0.30119,0.30172 h 0.31907 l 0.30122,-0.30172 v -1.24233 l -0.30122,-0.30173 h -0.31907 m 1.22311,0.30173 h 1.24083 m -0.62039,0.31945 v 1.2246 m -0.62044,-0.62119 h 1.24083 m 0.92178,-1.22459 -0.31907,0.30173 v 1.24233 l 0.31907,0.30172 h 0.30121 l 0.3012,-0.30172 v -1.24233 l -0.3012,-0.30173 h -0.30121 m 1.22311,0 v 0.30173 m 0.62038,0 0.30121,-0.30173 h 0.62042 l 0.30122,0.30173 v 0.62117 l -0.30122,0.30173 h -0.92174 v 0.6212 h 1.22311 m 0.9219,-1.84583 -0.3012,0.30173 v 1.24233 l 0.3012,0.30172 h 0.30121 l 0.31907,-0.30172 v -1.24233 l -0.31907,-0.30173 h -0.30121 m 1.8435,1.84578 -0.62042,-0.62119 v -0.60341 l 0.62042,-0.62118 m 0.60267,1.54406 0.31908,0.30172 h 0.60267 l 0.31907,-0.30172 v -0.31958 l -0.31907,-0.30173 h -0.60267 l -0.31908,-0.30172 v -0.62118 h 1.24087 m 0.60266,1.5e-4 1.24084,1.84578 m -1.24084,0 1.24084,-1.84578 m 0.60271,1.84578 0.62039,-0.62119 v -0.60341 l -0.62039,-0.62118 m -23.82396,49.90743 v -6.12306 m 48.17971,6.12306 v -6.12306 m -46.33623,1.8458 h 13.61373 m 30.87895,0 h -13.61365 m -29.46091,-44.7073 v -0.62117 l -1.84354,0.31956 1.84354,0.30173 m -12.19565,-1.2e-4 v -0.62117 l 1.84355,0.31956 -1.84355,0.30173 m 15.26225,19.34521 -0.3012,0.30174 v 1.2246 l 0.3012,0.31957 h 0.30122 l 0.31906,-0.31957 v -1.2246 l -0.31906,-0.30174 h -0.30122 m 1.22311,0 v 0.30174 m 0.62042,0 0.30122,-0.30174 h 0.62043 l 0.3012,0.30174 v 0.62118 l -0.3012,0.30172 h -0.9218 v 0.62118 h 1.22312 m 0.92189,-1.84582 -0.30119,0.30174 v 1.2246 l 0.30119,0.31957 h 0.31907 l 0.30122,-0.31957 v -1.2246 l -0.30122,-0.30174 h -0.31907 m 1.22311,0.30174 h 1.24083 m -0.6204,0.30172 v 1.24233 m -0.62043,-0.62118 h 1.24083 m 0.92178,-1.22461 -0.31907,0.30174 v 1.2246 l 0.31907,0.31957 h 0.30121 l 0.3012,-0.31957 v -1.2246 l -0.3012,-0.30174 h -0.30121 m 1.22311,0 v 0.30174 m 0.62038,0 0.30121,-0.30174 h 0.62043 l 0.30121,0.30174 v 0.62118 l -0.30121,0.30172 h -0.92175 v 0.62118 h 1.22311 m 0.9219,-1.84582 -0.3012,0.30174 v 1.2246 l 0.3012,0.31957 h 0.30121 l 0.31907,-0.31957 v -1.2246 l -0.31907,-0.30174 h -0.30121 m 1.8435,1.84579 -0.62043,-0.62118 v -0.62115 l 0.62043,-0.60346 m 0.60268,1.52634 0.31908,0.31957 h 0.60266 l 0.31907,-0.31957 v -0.30173 l -0.31907,-0.30172 h -0.60266 l -0.31908,-0.31959 V 577.09 h 1.24086 m 0.60266,1.5e-4 1.24083,1.84579 m -1.24083,0 1.24083,-1.84579 m 0.60272,1.84579 0.62038,-0.62118 v -0.62115 l -0.62038,-0.60346 m -30.91445,-12.68983 v -8.80301 m 8.50856,7.80912 v -7.80912 m -10.35211,1.84579 h -1.84348 m 14.03913,0 h 1.84349 m -1.84349,20.56997 v -0.62118 l -1.84354,0.30172 1.84354,0.31957 m -5.10516,-1.1e-4 v -0.62118 l 1.84355,0.30172 -1.84355,0.31957 m 69.57522,13.84333 0.30121,-0.30173 v -0.62118 l -0.3015,-0.30178 h -0.31908 l -0.3012,0.30173 v 0.62118 l -0.30121,0.30173 h -0.62043 v -1.22461 m -2.6e-4,-0.62119 h 0.3012 m -0.3012,-0.92285 0.3012,0.30171 h 0.31907 l 0.30122,-0.30171 v -0.62119 l 0.30119,-0.30174 h 0.31909 l 0.30119,0.30174 v 0.62119 l -0.30119,0.30171 h -0.31909 l -0.30119,-0.30171 m 2.7e-4,-0.62119 -0.30122,-0.30174 h -0.31907 l -0.30121,0.30174 v 0.62119 m -2.6e-4,-1.8458 0.3012,0.30172 h 1.24085 l 0.30123,-0.30172 v -0.30174 l -0.30123,-0.31955 h -1.24063 l -0.30121,0.31955 v 0.30174 m 0.30137,-1.22464 v -1.22461 m 0.31905,0.60342 h 1.22313 m -0.62044,0.62119 v -1.22461 m -1.22311,-0.92288 0.30121,0.30173 h 1.24085 l 0.30122,-0.30173 v -0.31953 l -0.30122,-0.30174 h -1.24085 l -0.30121,0.30174 v 0.31957 m 0,-1.24238 h 0.30121 m 1.24097,-0.60345 0.3012,-0.31957 v -0.60343 l -0.3012,-0.31956 h -0.31907 l -0.30121,0.31956 v 0.60343 l -0.30121,0.31957 h -0.62042 v -1.24233 m -2.7e-4,-0.92292 0.30121,0.31957 h 1.24085 l 0.30122,-0.31957 v -0.30172 l -0.30122,-0.30174 h -1.24085 l -0.30121,0.30174 v 0.30172 m -66.18949,-5.53736 v 5.2179 m 1.41808,-4.50799 v 4.50799 m -3.26162,-1.84579 h -1.84354 m 6.9487,0 h 1.84349 m 62.30749,-2.6622 h -0.60269 l 0.30123,-1.84583 0.3012,1.84583 m 2.6e-4,-11.62499 h -0.60269 l 0.30123,1.84581 0.3012,-1.84581 m -89.97776,-1.77476 0.30119,-0.31958 h -1.84351 m 1.4e-4,0.31958 v -0.62119 m 0,-0.6212 h 0.31905 m 1.22313,-0.6034 0.30119,-0.3196 h -1.84351 m 1.4e-4,0.3196 v -0.6212 m 0,-0.92292 0.31905,0.30173 h 1.22313 l 0.30119,-0.30173 v -0.30174 l -0.30119,-0.31956 h -1.22313 l -0.31905,0.31956 v 0.30174 m 72.71273,7.01048 h 20.34965 m -20.34965,7.93335 h 20.34965 m -1.84353,-9.77916 v -1.84578 m 0,13.47077 v 1.84579 m -89.97804,-12.47697 h -0.62036 l 0.30119,1.82806 0.31906,-1.82806 m 1.1e-4,6.7975 h -0.62036 l 0.30119,-1.8458 0.31906,1.8458 m 6.0625,-6.44252 0.30121,-0.31958 h -1.84355 m 1.6e-4,0.31958 V 564.134 m 0,-0.62119 h 0.30122 m 1.24096,-0.60342 0.30121,-0.31956 h -1.84355 m 1.6e-4,0.31956 v -0.62118 m 0,-0.92292 0.30122,0.30174 h 1.24081 l 0.30119,-0.30174 v -0.30172 l -0.30119,-0.31958 h -1.24081 l -0.30122,0.31958 v 0.30172 m -2.9603,7.98662 h -3.7225 m 3.7225,-3.12364 h -3.7225 m 1.84354,4.96944 v 1.84578 m 0,-8.64328 v -1.84578 m 6.06233,4.95168 h -0.60267 l 0.3012,1.8458 0.30122,-1.8458 m 2.5e-4,6.81529 h -0.60267 l 0.3012,-1.84584 0.30122,1.84584 m 33.32544,204.91874 0.30124,0.30173 h 0.6204 l 0.30122,-0.30173 v -0.31957 l -0.30122,-0.30173 h -0.6204 l -0.30124,-0.30173 v -0.62118 h 1.22312 m 0.6027,1.54421 0.31906,0.30173 h 0.60271 l 0.31908,-0.30173 v -0.31957 l -0.31908,-0.30173 h -0.60271 l -0.31906,-0.30173 v -0.62118 h 1.24085 m 0.60267,10e-5 v 0.30174 m 0.92175,-0.30174 -0.30121,0.30174 v 1.24237 l 0.30121,0.30173 h 0.31907 l 0.30121,-0.30173 v -1.24237 l -0.30121,-0.30174 h -0.31907 m 1.54217,0 -0.30121,0.30174 v 1.24237 l 0.30121,0.30173 h 0.30122 l 0.31905,-0.30173 v -1.24237 l -0.31905,-0.30174 h -0.30122 m 1.22311,0.30174 h 1.24085 m -0.62042,0.31946 v 1.22459 m -0.62043,-0.62119 h 1.24085 m 0.92175,-1.2246 -0.31905,0.30174 v 1.24237 l 0.31905,0.30173 h 0.30121 l 0.30122,-0.30173 v -1.24237 l -0.30122,-0.30174 H 168.174 m 1.22313,0 v 0.30174 m 0.60266,1.24237 0.31907,0.30173 h 0.6027 l 0.31906,-0.30173 v -0.31957 l -0.31906,-0.30173 h -0.6027 l -0.31907,-0.30173 v -0.62118 h 1.24087 m 0.92175,10e-5 -0.31908,0.30174 v 1.24237 l 0.31908,0.30173 h 0.3012 l 0.30121,-0.30173 v -1.24237 l -0.30121,-0.30174 h -0.3012 m -44.9538,-205.2204 h -4.02384 m 4.02384,-3.12364 h -4.02384 m 1.84355,4.96949 v 1.84578 m 0,-8.66107 v -1.82805 m 70.85149,213.24257 v -0.60341 l 1.84354,0.30172 -1.84354,0.30173 m -58.67361,-4e-5 v -0.60341 l -1.84353,0.30172 1.84353,0.30173 m 2.96026,-6.95725 h -1.22311 l 0.92176,1.2246 v -1.84578 m 0.92177,0 v 0.30173 m 0.60269,0 0.3012,-0.30173 h 0.62043 l 0.30122,0.30173 v 0.6212 l -0.30122,0.30171 h -0.92178 v 0.62118 h 1.22312 m 0.92189,-1.84582 -0.30121,0.30173 v 1.24234 l 0.30121,0.30171 h 0.31907 l 0.3012,-0.30171 V 771.644 l -0.3012,-0.30173 h -0.31907 m -8.17176,-13.34652 v 22.469 m 62.36068,-22.469 v 22.469 m -60.51715,-1.84578 h 20.52689 m 38.14672,0 h -20.52692 m -41.83376,-6.05208 v -0.60344 l 1.84354,0.30175 -1.84354,0.30171 m 16.4499,-2e-5 v -0.60344 l -1.84353,0.30175 1.84353,0.30171 m 6.3105,-1.22464 v 1.84578 l 0.70909,-1.84578 0.69128,1.84578 v -1.84578 m 0.70906,0 v 1.84578 m 0.69134,-1.84578 v 1.84578 l 1.2408,-1.84578 v 1.84578 m 2.3576,0 0.70904,-1.84578 0.69131,1.84578 m 0.44317,-1.6683 -0.0885,-0.0889 0.0885,-0.0889 0.0886,0.0889 m 0.70914,-0.0887 0.69129,1.84577 0.7091,-1.84577 m -1.13451,0.62117 h 0.86858 m 0.8863,-0.4437 -0.0884,-0.0889 0.0884,-0.0889 0.0711,0.0889 m 2.37523,1.40224 0.17738,0.0889 0.2659,0.26604 v -1.84574 m 1.13433,1.8458 h 0.97497 l -0.53181,-0.7099 h 0.26589 l 0.1774,-0.0889 0.0884,-0.0889 0.0884,-0.24859 v -0.17763 l -0.0884,-0.26645 -0.17738,-0.17761 -0.26588,-0.0889 h -0.26589 l -0.26588,0.0889 -0.0885,0.0888 -0.0883,0.17763 m 1.84334,-0.1768 -0.0885,-0.0889 0.0885,-0.0889 0.0885,0.0889 m 1.22331,1.75716 -0.24805,-0.0889 -0.17738,-0.26605 -0.0886,-0.44372 v -0.26605 l 0.0886,-0.42596 0.17738,-0.26643 0.24805,-0.0888 h 0.17738 l 0.26587,0.0888 0.17739,0.26643 0.0886,0.42596 v 0.26605 l -0.0886,0.44372 -0.17739,0.26605 -0.26587,0.0889 h -0.17738 m 1.75488,0 -0.24805,-0.0889 -0.17738,-0.26605 -0.0885,-0.44372 v -0.26605 l 0.0885,-0.42596 0.17738,-0.26643 0.24805,-0.0888 h 0.17738 l 0.26588,0.0888 0.1774,0.26643 0.0886,0.42596 v 0.26605 l -0.0886,0.44372 -0.1774,0.26605 -0.26588,0.0889 h -0.17738 M 148.1258,768.5734 v 5.5374 m -12.76287,-17.961 v 17.96102 m 14.60639,-1.84579 h 1.84349 m -18.2934,0 h -1.8435 m 51.44133,0.3017 v -0.60344 l 1.84349,0.30174 -1.84349,0.30172 m -33.14792,-2e-5 v -0.60344 l -1.84355,0.30174 1.84355,0.30172 m -12.10698,-7.91564 v 1.84579 l 0.62039,-1.24235 0.60273,1.24235 v -1.84579 m 0.62036,1.84579 h 0.6027 m -0.30131,0 v -1.84579 m -0.30139,0 h 0.6027 m 0.62042,0 v 1.84579 l 1.22311,-1.84579 v 1.84579 m 2.46394,-0.92292 h 0.92177 l 0.30121,-0.31956 v -0.30174 l -0.30121,-0.30172 h -0.62041 l -0.3012,0.30172 v 0.92293 l 0.62039,0.6212 h 0.30122 m 0.92177,-1.8457 v 0.30172 m 0.92175,-0.30172 -0.30123,0.30172 v 1.22465 l 0.30123,0.31957 h 0.3012 l 0.3012,-0.31957 v -1.22465 l -0.3012,-0.30172 h -0.3012 m 1.52446,0 -0.30121,0.30172 v 1.22465 l 0.30121,0.31957 h 0.31906 l 0.30121,-0.31957 v -1.22465 l -0.30121,-0.30172 h -0.31906 m -0.77997,5.76809 v 3.69162 m 36.83496,-5.89234 v 5.89234 m -34.99141,-1.84579 h 5.38874 m 27.75918,0 h -5.38877 m -44.20906,-6.38932 v -0.62116 l 1.84352,0.31955 -1.84352,0.30174 m 20.68645,-1.3e-4 v -0.62116 l -1.8258,0.31955 1.8258,0.30174 m 5.10514,-1.22473 v 1.84579 l 0.60269,-1.24235 0.62038,1.24235 v -1.84579 m 0.62044,0 v 0.60344 l 0.60269,1.24235 0.6204,-1.24235 v -0.60344 m -1.22309,0.60344 h 1.22309 m 0.62045,-0.60344 1.2231,1.84579 m -1.2231,0 1.2231,-1.84579 m 2.44618,1.52633 0.31907,0.31957 v -1.84579 m -0.31907,-1.1e-4 h 0.62044 m 0.92177,0 -0.30121,0.30172 v 1.22465 l 0.30121,0.31957 h 0.30122 l 0.31905,-0.31957 v -1.22465 l -0.31905,-0.30172 h -0.30122 m 1.22307,0 v 0.30172 m 0.92178,-0.30172 -0.30119,0.30172 v 1.22465 l 0.30119,0.31957 h 0.31908 l 0.30121,-0.31957 v -1.22465 l -0.30121,-0.30172 h -0.31908 m 1.54218,0 -0.30119,0.30172 v 1.22465 l 0.30119,0.31957 h 0.30123 l 0.30119,-0.31957 v -1.22465 l -0.30119,-0.30172 h -0.30123 m -19.51651,-6.65551 v 9.40661 m -17.01713,-9.40645 v 9.40645 m 18.84293,-1.82807 h 1.84354 m -22.52999,0 h -1.8435 m 47.18706,0.30173 v -0.62116 l 1.84349,0.31955 -1.84349,0.30174 m -24.65711,-1.3e-4 v -0.62116 l -1.8258,0.31955 1.8258,0.30174 m -28.37962,10.45348 h 1.84354 l -1.2231,-0.62119 1.2231,-0.60342 h -1.84354 m 0,-0.62118 h 0.62044 l 1.2231,-0.62119 -1.2231,-0.60342 h -0.62044 m 0.62044,1.22461 v -1.22461 m -0.62044,-0.62118 1.84354,-1.22465 m 0,1.22465 -1.84354,-1.22465 m 1.54221,-2.46698 0.30121,-0.30173 h -1.84353 m 1.1e-4,0.30173 v -0.60343 m 0,-0.62118 h 0.31907 m -0.31907,-0.92287 0.31907,0.30173 h 1.22311 l 0.3012,-0.30173 v -0.30172 l -0.3012,-0.31957 h -1.22311 l -0.31907,0.31957 v 0.30173 m 0,-1.54408 0.31907,0.31955 h 1.22311 l 0.3012,-0.31955 v -0.30176 l -0.3012,-0.30172 h -1.22311 l -0.31907,0.30172 v 0.30176 m 26.55382,-7.25895 v 9.40645 m 28.3264,-9.40645 v 9.40645 m -26.5006,-1.82807 h 4.18338 m 20.47373,0 h -4.16568 m -47.64794,-4.7387 h -0.60267 l 0.30119,-1.84579 0.30123,1.84579 m 2.5e-4,-6.53126 h -0.60267 l 0.30119,1.84578 0.30123,-1.84578 m -6.89521,-3.23016 v 1.22462 l 1.22311,-0.9229 h -1.84355 m 0,-0.92289 h 0.31907 m 0.30137,-1.84579 v 1.24234 l 1.22311,-0.92288 h -1.84355 m 1.54218,-0.92291 0.30121,-0.31957 h -1.84349 m 1e-4,0.31957 v -0.62119 m -2.33982,-4.34824 0.1774,0.0889 0.19484,0.2486 0.0532,0.12411 0.019,0.14195 m -0.92308,-9e-5 h -1.87898 m 2.80077,0 -0.019,0.1241 -0.0532,0.12412 -0.19487,0.24859 -0.3012,0.14195 -0.37224,0.0711 -0.37223,-0.0711 -0.28375,-0.14195 -0.21269,-0.24859 -0.0532,-0.12412 -0.019,-0.1241 0.019,-0.14194 0.0532,-0.1241 0.21269,-0.2486 0.17737,-0.10663 m -1.38166,0.62129 v -1.08262 m 2.35762,-122.07094 0.17739,0.10663 0.19485,0.2486 0.0532,0.12412 0.019,0.1241 m -0.92308,-4e-5 H 114.836 m 2.80077,0 -0.019,0.14195 -0.0532,0.12412 -0.19487,0.24859 -0.30121,0.14195 -0.37223,0.053 -0.37223,-0.053 -0.28374,-0.14195 -0.2127,-0.24859 -0.0531,-0.12412 -0.019,-0.14195 0.019,-0.1241 0.0531,-0.12412 0.2127,-0.2486 0.17736,-0.10663 m -1.38167,0.60346 v -1.08261 m 18.68343,136.1451 h -8.61491 m 39.79526,2.83968 H 124.9045 m 1.84353,-4.68547 v -1.8458 m 0,8.37706 v 1.82807 m -5.97372,-8.35933 h -0.62042 l 0.3012,1.84579 0.31906,-1.84579 m 1.6e-4,-8.83853 h -0.62042 l 0.3012,-1.82806 0.31906,1.82806 m -1.2407,-44.79601 h 1.84355 v -0.92293 l -0.30121,-0.30171 h -0.30121 l -0.31907,0.30171 v 0.92293 m 0.92149,-1.84579 v -0.60347 m 0,0.30174 h -1.84355 m 0,0.30173 v -0.60347 m 1.84355,-0.62118 v -1.22461 m 0,0.60343 h -1.84355 m 0.31912,-2.44923 -0.31907,0.30174 v 0.6212 l 0.31907,0.30172 h 1.22306 l 0.30119,-0.30172 v -0.6212 l -0.30119,-0.30174 m -1.54218,-0.62118 h 1.84355 m -0.92176,0 v -1.22461 m 0.92176,0 h -1.84355 m 1.54218,-2.46698 0.30119,-0.30171 v -0.62119 l -0.30119,-0.30173 h -0.30121 l -0.31906,0.30173 v 0.62119 l -0.30121,0.30171 h -0.62038 v -1.22455 m -3.2e-4,-0.62119 h 0.31907 m 5e-5,-0.60346 -0.31907,-0.31957 v -0.60342 l 0.31907,-0.31957 h 0.60267 l 0.31907,0.31957 v 0.92288 h 0.60269 v -1.24234 m -1.22311,-1.82794 v 1.22459 l 1.22311,-0.92288 h -1.84355 m 0,-2.7687 1.84355,-1.22461 m 0,1.22461 -1.84355,-1.22461 m 1.54218,-2.46696 0.30119,-0.30173 h -1.84348 m 1.1e-4,0.30173 v -0.6212 m 1.84355,-0.60344 v -1.22461 l -1.84355,0.9229 m 1.24086,-3.38988 v -1.22459 m -0.62042,0 v 1.22459 m 0,-4.91616 v 1.22458 l 1.22311,-0.92289 h -1.84355 m 1.54218,-0.92288 0.30119,-0.30173 v -0.6212 l -0.30119,-0.30173 h -0.30121 l -0.31906,0.30173 v 0.31959 m -1.2e-4,-0.31959 -0.3012,-0.30173 h -0.30121 l -0.31906,0.30173 v 0.6212 l 0.31906,0.30173 m -0.31938,-1.84579 h 0.31907 m 1.22311,-0.60347 0.30119,-0.31957 h -1.84348 m 1.1e-4,0.31957 v -0.62118 m 0,-0.92289 0.31907,0.30173 h 0.3012 l 0.30122,-0.30173 v -0.62117 l 0.31906,-0.30172 h 0.30121 l 0.3012,0.30172 v 0.62117 l -0.3012,0.30173 H 120.774 l -0.31906,-0.30173 m 3e-4,-0.62117 -0.3012,-0.30172 h -0.30121 l -0.31906,0.30172 v 0.62117 m 13.98564,79.54667 H 118.6117 m 14.9077,12.51237 h -14.9077 m 1.84354,-10.6843 v 1.08261 m 0,7.75591 v -1.08267 m 0.31906,-130.28827 h -0.62042 l 0.3012,-1.8458 0.31906,1.8458 m 1.6e-4,118.85855 h -0.62042 l 0.3012,1.8458 0.31906,-1.8458 m 6.5943,-47.83093 0.3012,-0.30174 h -1.84352 m 1.2e-4,0.30174 v -0.60342 m 0,-0.62119 h 0.31905 m 1.22315,-0.62119 0.3012,-0.30173 v -0.62117 l -0.3012,-0.30175 h -0.31906 l -0.3012,0.30175 v 0.62117 l -0.30122,0.30173 h -0.62042 v -1.22461 m 1.84322,-0.60344 v -1.24238 l -1.84352,0.92292 m 1.84352,-3.37213 v -1.24237 m 0,0.6212 h -1.84352 m 1.84352,-1.22462 -0.92174,-0.62117 h -0.92178 m 0.92178,0 0.92174,-0.62119 m -1.84352,-0.60342 h 1.84352 v -0.92292 l -0.30122,-0.30173 h -0.31905 l -0.30121,0.30173 v 0.92292 m -0.92204,-1.8458 h 0.31905 m 7.37411,62.57954 h -14.90787 m 14.90768,-122.55013 h -14.90768 m 1.84352,120.70435 v -40.19929 m 0,-78.65927 v 40.1993 m 6.59411,33.59703 h -0.60268 l 0.3012,1.84579 0.30123,-1.84579 m 2.5e-4,7.29442 h -0.60268 l 0.3012,-1.8458 0.30123,1.8458 m 84.57181,-14.5889 -0.3012,-0.31954 v -0.60343 l 0.3012,-0.30173 h 0.62043 l 0.30121,0.30173 v 0.92286 h 0.62043 v -1.22459 m -0.31895,-0.62107 0.31906,-0.30172 v -0.62116 l -0.31906,-0.30173 h -0.30122 l -0.3012,0.30173 v 0.62116 l -0.31906,0.30172 h -0.60285 v -1.22461 m -2.6e-4,-0.62118 h 0.3012 m -0.3012,-0.92291 0.3012,0.30173 h 1.22308 l 0.31905,-0.30173 V 684.519 l -0.31905,-0.31956 h -1.22312 l -0.30121,0.31956 v 0.30173 m 5e-5,-1.54407 0.3012,0.31957 h 1.22308 l 0.31905,-0.31957 v -0.30172 l -0.31905,-0.30173 h -1.22312 l -0.30121,0.30173 v 0.30172 m 0.30136,-1.2246 v -1.22466 m 0.30136,0.60349 h 1.24082 m -0.62043,0.62117 v -1.22466 m -1.22306,-0.92285 0.3012,0.30172 h 1.22308 l 0.31905,-0.30172 v -0.30174 l -0.31905,-0.31957 h -1.22312 l -0.30121,0.31957 v 0.30174 m 5e-5,-1.22461 h 0.3012 m 1.22323,-0.62118 0.31906,-0.30173 v -0.6212 l -0.31906,-0.30171 h -0.30122 l -0.3012,0.30171 v 0.6212 l -0.31906,0.30173 h -0.60269 v -1.22462 m -2.6e-4,-0.9229 0.3012,0.30173 h 1.22308 l 0.31905,-0.30173 v -0.31958 l -0.31905,-0.30174 h -1.22312 l -0.30121,0.30174 v 0.31958 m -77.80015,26.26706 h -8.6149 m 8.6149,-3.60283 h -8.6149 m 1.84353,5.44863 v 1.84579 m 0,-9.14021 v -1.84579 m 85.79463,-84.46287 h -0.62039 l 0.31907,-1.84583 0.30121,1.84583 m 1.1e-4,143.88327 h -0.62039 l 0.31907,1.84579 0.30121,-1.84579 m -12.97544,1.84579 H 214.0668 M 199.56669,608.57513 h 14.50004 m -1.82581,145.7291 v -63.94616 m 0,-79.93711 v 63.94612 m -3.40346,79.93715 h -0.62038 l 0.30122,1.84579 0.31905,-1.84579 m 1.1e-4,-1.98778 h -0.62038 l 0.30122,-1.84581 0.31905,1.84581 m -1.24068,-59.50916 h 1.84352 l -1.22311,-0.60343 1.22311,-0.62117 h -1.84352 m 1.84352,-0.62119 v -0.60343 m 0,0.3017 h -1.84352 m 0,0.30173 v -0.60343 m 0,-0.62117 h 1.84352 l -1.84352,-1.22461 h 1.84352 m 0,-2.46698 -1.84352,-0.92291 1.84352,-0.92292 m -1.84352,-0.60342 h 0.31905 m -0.31905,-0.62118 h 0.62041 l 1.22311,-0.6212 -1.22311,-0.6034 h -0.62041 m 0.62041,1.2246 v -1.2246 m -0.62041,-0.62119 h 0.31905 m 0.30136,-3.69158 v 1.24237 l 1.22311,-0.92291 h -1.84352 m 0,-1.24239 0.31905,0.31958 h 0.30121 l 0.30122,-0.31958 v -0.6034 l 0.31905,-0.31958 h 0.30123 l 0.30119,0.31958 v 0.6034 l -0.30119,0.31958 h -0.30123 l -0.31905,-0.31958 m 2.6e-4,-0.6034 -0.3012,-0.31958 h -0.30122 l -0.31907,0.31958 v 0.6034 m -2.5e-4,-1.52632 h 0.31905 m -0.31905,-0.92286 0.31905,0.30171 h 1.22312 l 0.3012,-0.30171 v -0.31959 l -0.3012,-0.30173 h -1.22312 l -0.31905,0.30173 v 0.31959 m 0,-1.54412 0.31905,0.30172 h 1.22312 l 0.3012,-0.30172 v -0.30172 l -0.3012,-0.31957 h -1.22312 l -0.31905,0.31957 v 0.30172 m -20.79281,77.94936 h 23.5581 m -10.79527,5.67938 h 10.79527 m -1.84355,-3.83357 v 1.98778 m 0.10631,8.51903 0.30121,-0.30173 v -0.62119 l -0.30121,-0.30172 h -0.30121 l -0.31907,0.30172 v 0.62119 l -0.30121,0.30173 h -0.60269 v -1.22461 m -2.5e-4,-0.62117 h 0.30121 m -0.30121,-0.92289 0.30121,0.31957 h 1.22311 l 0.30121,-0.31957 v -0.30173 l -0.30121,-0.30173 h -1.22311 l -0.30121,0.30173 v 0.30173 m 0,-1.52634 0.30121,0.30175 h 1.22311 l 0.30121,-0.30175 v -0.31954 l -0.30121,-0.30176 h -1.22311 l -0.30121,0.30176 v 0.31954 m 1.73713,-9.9034 h -0.6204 l 0.30123,1.84579 0.31906,-1.84579 m 1.1e-4,-132.52453 h -0.6204 l 0.30123,-1.84579 0.31906,1.84579 m -22.03349,-1.84579 h 23.55809 m -23.55809,136.21611 h 23.55809 m -1.84354,-134.37032 v 54.8769 m 0,77.64763 v -54.89466 m -69.02565,-127.50184 -4.5556,-0.83418 v 0.83418 h 4.5556 m -0.26589,-0.83418 0.26589,0.83418 -4.55564,-0.83418 h 4.28975 m 2.33985,-0.60342 -2.33985,0.60342 0.26589,0.83418 2.07393,-1.4376 m -0.49629,-0.69216 0.49632,0.69216 -2.33985,0.60342 1.84353,-1.29558 m -1.55992,5.25339 1.55992,2.12977 0.49632,-0.69216 -2.05624,-1.43761 m -0.26588,0.85191 0.26588,-0.85191 1.55989,2.12977 -1.82581,-1.27786 m -3.882,-0.85191 3.88204,0.85191 0.26588,-0.85191 h -4.14792 m -0.85086,0.85191 0.85086,-0.85191 3.88204,0.85191 h -4.7329 m 0.85086,-6.30053 -0.85086,6.30053 0.85086,-0.85191 v -5.44862 m -0.85086,0.51468 0.85086,-0.51468 -0.85086,6.30053 v -5.78585 m -2.32213,-2.18301 2.32213,2.18301 0.85086,-0.51468 -3.17299,-1.66833 m -0.85083,0.51469 0.85083,-0.51469 2.32213,2.18301 -3.17296,-1.66832 m 0.85083,-15.52952 -0.85083,15.52952 0.85083,-0.51469 V 547.2202 m -0.85083,0 h 0.85083 l -0.85083,15.52952 V 547.2202 m 62.52016,18.17397 4.28975,0.83418 v -0.83418 h -4.28975 m -0.26588,0.83418 0.26588,-0.83418 4.28975,0.83418 h -4.55563 m -1.57762,-2.12976 1.57762,2.12976 0.26588,-0.83418 -1.8435,-1.29558 m -0.49633,0.69216 0.49633,-0.69216 1.57762,2.12976 -2.07395,-1.4376 m 2.32213,5.41314 -2.32213,0.5857 0.49633,0.69216 1.8258,-1.27786 m -0.26589,-0.85191 0.26589,0.85191 -2.32213,0.5857 2.05621,-1.43761 m 4.99879,0.85191 -4.99876,-0.85191 0.26589,0.85191 h 4.73287 m -0.85083,-0.85191 0.85083,0.85191 -4.99876,-0.85191 h 4.14793 m 0.85083,-4.93394 -0.85083,4.93394 0.85083,0.85191 v -5.78585 m -0.85083,-0.51468 0.85083,0.51468 -0.85083,4.93394 v -5.44862 m 4.02383,-1.15364 -4.02383,1.15364 0.85083,0.51468 3.173,-1.66832 m -0.85087,-0.51469 0.85087,0.51469 -4.02383,1.15364 3.17296,-1.66833 m 0.85087,-15.01483 -0.85087,15.01483 0.85087,0.51469 V 547.2202 m -0.85087,0 h 0.85087 l -0.85087,15.01483 V 547.2202 m -57.02508,18.032 45.34356,0.97615 v -0.97615 h -45.34356 m 0,0.97615 v -0.97615 l 45.34356,0.97615 h -45.34356 m 0,6.24729 45.34356,0.70991 v -0.70991 h -45.34356 m 0,0.70991 v -0.70991 l 45.34356,0.70991 h -45.34356 m -8.50856,-3.83357 h 62.36068 v -3.12363 h -62.36068 z m 61.74024,60.75152 0.62044,-0.30173 m -7.09048,-1.50858 3.54525,-1.79256 m -3.54525,0.53248 1.04583,-0.53248 m -56.31603,-7.20566 h 7.09049 m 0,3.60284 h -7.09049 m 0,-0.53245 6.04464,-3.07039 m -4.57336,3.60284 5.61921,-2.85744 m -3.11984,2.85744 3.11984,-1.57957 m -0.60274,1.57957 0.60274,-0.31956 m -7.09049,-1.49075 3.54525,-1.79253 m -3.54525,0.51468 1.04584,-0.51468 m 54.22436,0 h 7.09048 m 0,3.60284 h -7.09048 m 0,-0.53245 6.04464,-3.07039 m -4.57337,3.60284 5.61921,-2.85744 m -3.11983,2.85744 3.11983,-1.57957 m -0.62044,1.57957 0.62044,-0.31956 m -7.09048,-1.49075 3.54525,-1.79253 m -3.54525,0.51468 1.04583,-0.51468 m -10.9725,136.85505 -1.50671,0.58567 -1.52447,0.51472 -1.54217,0.46143 -1.57762,0.39045 -1.57765,0.3196 -1.59536,0.24858 -1.61308,0.17763 -1.61304,0.10664 -1.61309,0.0341 -1.61309,-0.0341 -1.61309,-0.10664 -1.61308,-0.17763 -1.59536,-0.24858 -1.57762,-0.3196 -1.57764,-0.39045 -1.54218,-0.46143 -1.54215,-0.51472 -1.48901,-0.58567 m -9.92663,-186.79804 v 3.12366 h 48.17971 v -3.12366 m 6.47004,89.57431 0.62044,-0.30173 m -7.09048,-1.49083 3.54525,-1.81029 m -3.54525,0.53245 1.04583,-0.53245 m -56.31603,-7.20567 h 7.09049 m 0,3.60282 h -7.09049 m 0,-0.51468 6.04464,-3.08814 m -4.57336,3.60282 5.61921,-2.85745 m -3.11984,2.85745 3.11984,-1.57959 m -0.60274,1.57959 0.60274,-0.30172 m -7.09049,-1.49082 3.54525,-1.81028 m -3.54525,0.53243 1.04584,-0.53243 m 54.22436,0 h 7.09048 m 0,3.60282 h -7.09048 m 0,-0.51468 6.04464,-3.08814 m -4.57337,3.60282 5.61921,-2.85745 m -3.11983,2.85745 3.11983,-1.57959 m -0.62044,1.57959 0.62044,-0.30172 m -7.09048,-1.49082 3.54525,-1.81028 m -3.54525,0.53243 1.04583,-0.53243 m -56.31603,-7.20571 h 7.09049 m 0,3.60284 h -7.09049 m 0,-0.53243 6.04464,-3.07041 m -4.57336,3.60284 5.61921,-2.85743 m -3.11984,2.85743 3.11984,-1.57957 m -0.60274,1.57957 0.60274,-0.30173 m -7.09049,-1.4908 3.54525,-1.81031 m -3.54525,0.53245 1.04584,-0.53245 m 54.22436,0 h 7.09048 m 0,3.60284 h -7.09048 m 0,-0.53243 6.04464,-3.07041 m -4.57337,3.60284 5.61921,-2.85743 m -3.11983,2.85743 3.11983,-1.57957 m -0.62044,1.57957 0.62044,-0.30173 m -7.09048,-1.4908 3.54525,-1.81031 m -3.54525,0.53245 1.04583,-0.53245 m -56.31603,-7.20573 h 7.09049 m 0,3.6029 h -7.09049 m 0,-0.53247 6.04464,-3.07043 m -4.57336,3.6029 5.61921,-2.85745 m -3.11984,2.85745 3.11984,-1.5796 m -0.60274,1.5796 0.60274,-0.30173 m -7.09049,-1.49085 3.54525,-1.81032 m -3.54525,0.53245 1.04584,-0.53245 m 54.22436,0 h 7.09048 m 0,3.6029 h -7.09048 m 0,-0.53247 6.04464,-3.07043 m -4.57337,3.6029 5.61921,-2.85745 m -3.11983,2.85745 3.11983,-1.5796 m -0.62044,1.5796 0.62044,-0.30173 m -7.09048,-1.49085 3.54525,-1.81032 m -3.54525,0.53245 1.04583,-0.53245 m -56.31603,-7.2057 h 7.09049 m 0,3.60287 h -7.09049 m 0,-0.53246 6.04464,-3.07041 m -4.57336,3.60287 5.61921,-2.85744 m -3.11984,2.85744 3.11984,-1.57956 m -0.60274,1.57956 0.60274,-0.30173 m -7.09049,-1.50858 3.54525,-1.79256 m -3.54525,0.53248 1.04584,-0.53248 m 54.22436,0 h 7.09048 m 0,3.60287 h -7.09048 m 0,-0.53246 6.04464,-3.07041 m -4.57337,3.60287 5.61921,-2.85744 m -3.11983,2.85744 3.11983,-1.57956 m -0.62044,59.24291 0.62044,-0.30174 m -7.09048,-1.50856 3.54525,-1.79256 m -3.54525,0.53246 1.04583,-0.53246 m -56.31603,-7.20569 h 7.09049 m 0,3.60284 h -7.09049 m 0,-0.53243 6.04464,-3.07041 m -4.57336,3.60284 5.61921,-2.85743 m -3.11984,2.85743 3.11984,-1.57959 m -0.60274,1.57959 0.60274,-0.31954 m -7.09049,-1.49074 3.54525,-1.79256 m -3.54525,0.53247 1.04584,-0.53247 m 54.22436,0 h 7.09048 m 0,3.60284 h -7.09048 m 0,-0.53243 6.04464,-3.07041 m -4.57337,3.60284 5.61921,-2.85743 m -3.11983,2.85743 3.11983,-1.57959 m -0.62044,1.57959 0.62044,-0.31954 m -7.09048,-1.49074 3.54525,-1.79256 m -3.54525,0.53247 1.04583,-0.53247 m -56.31603,-7.20569 h 7.09049 m 0,3.60284 h -7.09049 m 0,-0.53245 6.04464,-3.07039 m -4.57336,3.60284 5.61921,-2.85742 m -3.11984,2.85742 3.11984,-1.57957 m -0.60274,1.57957 0.60274,-0.31955 m -7.09049,-1.49074 3.54525,-1.79255 m -3.54525,0.51469 1.04584,-0.51469 m 54.22436,0 h 7.09048 m 0,3.60284 h -7.09048 m 0,-0.53245 6.04464,-3.07039 m -4.57337,3.60284 5.61921,-2.85742 m -3.11983,2.85742 3.11983,-1.57957 m -0.62044,1.57957 0.62044,-0.31955 m -7.09048,-1.49074 3.54525,-1.79255 m -3.54525,0.51469 1.04583,-0.51469 m -56.31603,-7.20572 h 7.09049 m 0,3.60285 h -7.09049 m 0,-0.53243 6.04464,-3.07042 m -4.57336,3.60285 5.61921,-2.85739 m -3.11984,2.85739 3.11984,-1.5973 m -0.60274,1.5973 0.60274,-0.31957 m -7.09049,-1.49069 3.54525,-1.79259 m -3.54525,0.51469 1.04584,-0.51469 m 54.22436,0 h 7.09048 m 0,3.60285 h -7.09048 m 0,-0.53243 6.04464,-3.07042 m -4.57337,3.60285 5.61921,-2.85739 m -3.11983,2.85739 3.11983,-1.5973 m -0.62044,1.5973 0.62044,-0.31957 m -7.09048,-1.49069 3.54525,-1.79259 m -3.54525,0.51469 1.04583,-0.51469 m -56.31603,-7.22345 h 7.09049 m 0,3.60285 h -7.09049 m 0,-0.51471 6.04464,-3.08814 m -4.57336,3.60285 5.61921,-2.85741 m -3.11984,2.85741 3.11984,-1.57957 m -0.60274,1.57957 0.60274,-0.30173 m -7.09049,-1.49083 3.54525,-1.81029 m -3.54525,0.53245 1.04584,-0.53245 m 54.22436,0 h 7.09048 m 0,3.60285 h -7.09048 m 0,-0.51471 6.04464,-3.08814 m -4.57337,3.60285 5.61921,-2.85741 m -3.11983,2.85741 3.11983,-1.57957 m -62.36068,34.023 h 7.09049 m 0,3.60284 h -7.09049 m 0,-0.53244 6.04464,-3.0704 m -4.57336,3.60284 5.61921,-2.85744 m -3.11984,2.85744 3.11984,-1.57958 m -0.60274,1.57958 0.60274,-0.30174 m -7.09049,-1.49083 3.54525,-1.81027 m -3.54525,0.5324 1.04584,-0.5324 m 54.22436,0 h 7.09048 m 0,3.60284 h -7.09048 m 0,-0.53244 6.04464,-3.0704 m -4.57337,3.60284 5.61921,-2.85744 m -3.11983,2.85744 3.11983,-1.57958 m -0.62044,1.57958 0.62044,-0.30174 m -7.09048,-1.49083 3.54525,-1.81027 m -3.54525,0.5324 1.04583,-0.5324 m -56.31603,-7.20573 h 7.09049 m 0,3.60286 h -7.09049 m 0,-0.53241 6.04464,-3.07045 m -4.57336,3.60286 5.61921,-2.85741 m -3.11984,2.85741 3.11984,-1.57958 m -0.60274,1.57958 0.60274,-0.30174 m -7.09049,-1.50856 3.54525,-1.79256 m -3.54525,0.53246 1.04584,-0.53246 m 54.22436,0 h 7.09048 m 0,3.60286 h -7.09048 m 0,-0.53241 6.04464,-3.07045 m -4.57337,3.60286 5.61921,-2.85741 m -3.11983,2.85741 3.11983,-1.57958 m -62.36068,34.02296 h 7.09049 m 0,3.60289 h -7.09049 m 0,-0.53245 6.04464,-3.07044 m -4.57336,3.60289 5.61921,-2.85744 m -3.11984,2.85744 3.11984,-1.59734 m -0.60274,1.59734 0.60274,-0.31955 m -7.09049,-1.49074 3.54525,-1.7926 m -3.54525,0.51472 1.04584,-0.51472 m 54.22436,0 h 7.09048 m 0,3.60289 h -7.09048 m 0,-0.53245 6.04464,-3.07044 m -4.57337,3.60289 5.61921,-2.85744 m -3.11983,2.85744 3.11983,-1.59734 m -0.62044,1.59734 0.62044,-0.31955 m -7.09048,-1.49074 3.54525,-1.7926 m -3.54525,0.51472 1.04583,-0.51472 m -56.31603,-7.22345 h 7.09049 m 0,3.62062 h -7.09049 m 0,-0.53247 6.04464,-3.08815 m -4.57336,3.62062 5.61921,-2.85744 m -3.11984,2.85744 3.11984,-1.59731 m -0.60274,1.59731 0.60274,-0.31957 m -7.09049,-1.49073 3.54525,-1.81032 m -3.54525,0.53245 1.04584,-0.53245 m 54.22436,0 h 7.09048 m 0,3.62062 h -7.09048 m 0,-0.53247 6.04464,-3.08815 m -4.57337,3.62062 5.61921,-2.85744 m -3.11983,2.85744 3.11983,-1.59731 m -0.62044,1.59731 0.62044,-0.31957 m -7.09048,-1.49073 3.54525,-1.81032 m -3.54525,0.53245 1.04583,-0.53245 m -56.31603,-7.20569 h 7.09049 m 0,3.60287 h -7.09049 m 0,-0.51471 6.04464,-3.08816 m -4.57336,3.60287 5.61921,-2.85744 m -3.11984,2.85744 3.11984,-1.57957 m -0.60274,1.57957 0.60274,-0.30175 m -7.09049,-1.49082 3.54525,-1.8103 m -3.54525,0.53245 1.04584,-0.53245 m 54.22436,0 h 7.09048 m 0,3.60287 h -7.09048 m 0,-0.51471 6.04464,-3.08816 m -4.57337,3.60287 5.61921,-2.85744 m -3.11983,2.85744 3.11983,-1.57957 m -0.62044,1.57957 0.62044,-0.30175 m -7.09048,-1.49082 3.54525,-1.8103 m -3.54525,0.53245 1.04583,-0.53245 m -56.31603,-7.20568 h 7.09049 m 0,3.60283 h -7.09049 m 0,-0.51468 6.04464,-3.08815 m -4.57336,3.60283 5.61921,-2.85743 m -3.11984,2.85743 3.11984,-1.57957 m -0.60274,1.57957 0.60274,-0.30172 m -7.09049,-1.49081 3.54525,-1.8103 m -3.54525,0.53243 1.04584,-0.53243 m 54.22436,0 h 7.09048 m 0,3.60283 h -7.09048 m 0,-0.51468 6.04464,-3.08815 m -4.57337,3.60283 5.61921,-2.85743 m -3.11983,2.85743 3.11983,-1.57957 m -0.62044,1.57957 0.62044,-0.30172 m -7.09048,-1.49081 3.54525,-1.8103 m -3.54525,0.53243 1.04583,-0.53243 m -6.71824,47.6357 v 1.41984 l -0.0341,0.44371 -0.10631,0.42597 -0.15954,0.42593 -0.23056,0.37271 -0.30121,0.3374 -0.33692,0.28391 -0.37223,0.23076 -0.40768,0.1776 -0.44315,0.10664 -0.44315,0.0341 h -2.83631 m -2.81947,9.2e-4 h -2.83621 m -2.83617,0 h -2.83619 m -2.83619,0 h -2.83617 m -2.83621,0 h -2.8362 m -2.83617,0 h -2.81844 l -0.44316,-0.0341 -0.44316,-0.10663 -0.40771,-0.17763 -0.37224,-0.23075 -0.3369,-0.28391 -0.30122,-0.33738 -0.23057,-0.3727 -0.15953,-0.42597 -0.10631,-0.42596 -0.0342,-0.44371 m -12.76397,-5.80451 h 7.09048 m 0,3.60285 h -7.09048 m 0,-0.53242 6.04463,-3.07043 m -4.57336,3.60285 5.61921,-2.85741 m -3.11984,2.85741 3.11984,-1.57956 m -0.60274,1.57956 0.60274,-0.30173 m -7.09048,-1.49082 3.54525,-1.8103 m -3.54525,0.53245 1.04584,-0.53245 m 54.22436,0 h 7.09047 m 0,3.60285 h -7.09047 m 0,-0.53242 6.04463,-3.07043 m -4.57338,3.60285 5.61922,-2.85741 m -3.11983,2.85741 3.11983,-1.57956 m -0.62043,1.57956 0.62043,-0.30173 m -7.09047,-1.49082 3.54525,-1.8103 m -3.54525,0.53245 1.04583,-0.53245 m -56.31603,-7.20568 h 7.09048 m 0,3.60283 h -7.09048 m 0,-0.53244 6.04463,-3.07039 m -4.57336,3.60283 5.61921,-2.85743 m -3.11984,2.85743 3.11984,-1.57959 m -0.60274,1.57959 0.60274,-0.30172 m -7.09048,-1.50857 3.54525,-1.79254 m -3.54525,0.53244 1.04584,-0.53244 m 54.22436,0 h 7.09047 m 0,3.60283 h -7.09047 m 0,-0.53244 6.04463,-3.07039 m -4.57338,3.60283 5.61922,-2.85743 m -3.11983,2.85743 3.11983,-1.57959 m -0.62043,1.57959 0.62043,-0.30172 m -7.09047,-1.50857 3.54525,-1.79254 m -3.54525,0.53244 1.04583,-0.53244 m -56.31603,-7.20569 h 7.09048 m 0,3.60282 h -7.09048 m 0,-0.53243 6.04463,-3.07039 m -4.57336,3.60282 5.61921,-2.85743 m -3.11984,2.85743 3.11984,-1.57957 m -0.60274,1.57957 0.60274,-0.31955 m -7.09048,-1.49074 3.54525,-1.79253 m -3.54525,0.51469 1.04584,-0.51469 m 54.22436,0 h 7.09047 m 0,3.60282 h -7.09047 m 0,-0.53243 6.04463,-3.07039 m -4.57338,3.60282 5.61922,-2.85743 m -3.11983,2.85743 3.11983,-1.57957 m -0.62043,1.57957 0.62043,-0.31955 m -7.09047,-1.49074 3.54525,-1.79253 m -3.54525,0.51469 1.04583,-0.51469 m -49.22555,28.73405 v -147.5749 m 48.17971,0 v 147.57489 m -42.50736,-8.51907 v -1.41984 m 0,-2.83966 v -2.83969 m 0,-2.83971 v -2.83969 m 0,-2.82191 v -2.8397 m 0,-2.83969 v -2.83966 m 0,-2.83968 V 717.832 m 0,-2.83967 v -2.83967 m 0,-2.8397 v -2.82193 m 0,-2.83969 v -2.83967 m 0,-2.83969 v -2.83971 m 0,-2.83968 v -2.83969 m 0,-2.83966 v -2.83973 m 0,-2.83966 v -2.82192 m 0,-2.8397 v -2.83969 m 0,-2.83965 v -2.8397 m 0,-2.83968 v -2.8397 m 0,-2.83969 v -2.83967 m 0,-2.82195 v -2.83967 m 0,-2.83969 v -2.83967 m 0,-2.83972 v -2.83966 m 0,-2.83969 v -2.83967 m 0,-2.8397 v -2.83969 m 0,-2.82191 v -2.83971 m 0,-2.83968 v -1.41985 l 0.0342,-0.44372 0.10631,-0.44367 0.15953,-0.40822 0.23056,-0.37271 0.30121,-0.33702 0.33691,-0.30174 0.37223,-0.23075 0.40775,-0.15977 0.44314,-0.10663 0.44316,-0.0341 h 2.81846 m 2.83728,-9.8e-4 h 2.83621 m 2.83619,0 h 2.83617 m 2.8362,0 h 2.83619 m 2.83617,0 h 2.8362 m 2.81846,0 h 2.8362 l 0.44314,0.0341 0.44316,0.10662 0.40768,0.15978 0.37225,0.23074 0.33692,0.30174 0.30119,0.33704 0.23057,0.3727 0.15953,0.40822 0.1063,0.44369 0.0342,0.44369 v 1.41986 m 9.9e-4,2.84095 v 2.83973 m 0,2.82192 v 2.83966 m 0,2.83972 v 2.83967 m 0,2.83969 v 2.83965 m 0,2.83973 v 2.83967 m 0,2.83967 v 2.83969 m 0,2.82195 v 2.83967 m 0,2.83968 v 2.8397 m 0,2.83969 v 2.83968 m 0,2.83967 v 2.83969 m 0,2.8397 v 2.82193 m 0,2.83966 v 2.83972 m 0,2.83966 v 2.83968 m 0,2.83968 v 2.83972 m 0,2.83968 v 2.83965 m 0,2.8397 v 2.82195 m 0,2.83968 v 2.83968 m 0,2.83968 v 2.83972 m 0,2.83966 v 2.83969 m 0,2.83967 v 2.83971 m 0,2.82191 v 2.83969 m 0,2.8397 v 2.83968 m -49.59779,12.77859 h 62.36068 v -147.5752 h -62.36068 z m 30.1345,-19.34536 -6.3637,0.67442 -2.07397,-1.18912 0.23054,-0.19507 0.28374,-0.14196 0.30122,-0.0531 7.90587,-0.83414 0.62043,0.67438 -0.90405,1.0649 m -0.30145,1.84548 0.49635,0.94062 v 0.39047 l -2.35758,-0.0889 -4.59108,-1.27784 v -0.67444 l 2.8362,-0.30171 3.61611,1.01164 m -6.45231,2.12987 3.7934,-0.4792 3.15526,0.10664 v 0.65666 l -3.61613,0.99389 -3.33253,0.33739 v -1.61506 m 3.43889,1.68574 3.50977,-0.9584 v 0.46143 l -0.4786,0.81642 -3.7757,2.00554 -2.69436,0.28389 v -0.78092 l 3.43889,-1.82804 m -5.56605,-5.16459 v 8.55457 m 0.10631,0.51466 -0.0712,-0.24858 -0.0342,-0.26604 m 0.10532,0.51462 1.59538,-1.17138 v -7.20569 l -1.66627,-0.95839 -0.0342,0.2664 m 10.26223,4.13513 0.44316,0.8519 v 2.05873 l -0.81543,0.94066 -0.72674,-0.85191 v -1.77478 l 0.67356,-1.1714 0.42545,-0.053 m 0.51403,4.86284 -0.60268,-0.69216 0.92179,-1.04712 6.66502,-0.70992 1.87896,1.13586 -0.15952,0.17761 -0.19486,0.14196 -0.21272,0.10663 -0.24802,0.0531 -8.04766,0.83415 m 9.07549,-2.18313 -1.7017,-1.01165 v -6.97497 l 1.59536,-1.13586 0.0712,0.24858 0.0341,0.26606 v 8.60779 m -0.31801,-9.49513 -1.77263,1.24235 -6.66501,0.70992 -0.74453,-0.83418 0.74453,-0.88739 7.17909,-0.7454 h 0.35438 l 0.33691,0.0889 0.30122,0.17761 0.26588,0.24861 m -4.09458,9.05109 -4.09478,-1.11811 -0.51406,-0.94064 v -0.42596 l 2.33987,0.17764 4.55564,1.31333 v 0.76318 l -2.28667,0.23077 m -4.60884,-2.91086 v -0.53244 l 2.94256,-0.79866 3.95295,-0.47919 v 1.68603 l -3.47435,0.3727 -3.42116,-0.2486 m 0,-1.17124 0.74452,-1.20684 3.22618,-1.77482 2.92481,-0.30173 v 0.7454 l -3.24391,1.73931 -3.6516,0.99388 v -0.19509 m -0.58494,0.14188 0.4609,-0.76317 v -2.20073 l -0.63817,-0.70992 -0.904,1.06486 v 1.70382 l 0.4786,0.95839 0.60267,-0.0531 m 0.58494,0.5146 v 0.51468 M 158.19372,632.0561 h -0.35439 l -0.35439,-0.10664 -0.30121,-0.17763 -0.24802,-0.2486 1.66625,-1.22461 6.91321,-0.72767 0.70903,0.83418 -0.77994,0.88739 -7.25001,0.76317 m 7.30266,-10.47089 -6.3637,0.67438 -2.07398,-1.18912 0.23055,-0.19508 0.28374,-0.1241 0.30122,-0.0711 7.90587,-0.83419 0.62043,0.67445 -0.90405,1.0649 m -0.30146,1.84552 0.49636,0.95841 v 0.39042 l -2.35758,-0.0889 -4.59108,-1.29562 v -0.67438 l 2.83621,-0.30175 3.61609,1.01165 m -6.4523,2.12988 3.7934,-0.47921 3.15526,0.12412 v 0.63894 l -3.61613,0.99389 -3.33253,0.33702 v -1.61506 m 3.43889,1.68634 3.50977,-0.95836 v 0.46143 l -0.4786,0.81642 -3.77571,2.00549 -2.69435,0.2839 v -0.7809 l 3.43889,-1.82806 m -5.56605,-5.16459 v 8.57232 m 0.10631,0.49693 -0.0712,-0.24861 -0.0342,-0.24858 m 0.10532,0.49719 1.59538,-1.17136 v -7.2057 l -1.66626,-0.9584 -0.0342,0.26606 m 10.26223,4.13545 0.44316,0.8519 v 2.05878 l -0.81543,0.94065 -0.72675,-0.8519 v -1.75707 l 0.67356,-1.18912 0.42546,-0.053 m 0.51403,4.88056 -0.60268,-0.69216 0.92179,-1.06489 6.66501,-0.69216 1.87897,1.1181 -0.15953,0.17762 -0.19485,0.14196 -0.21272,0.10663 -0.24802,0.0531 -8.04766,0.8519 m 9.0755,-2.20084 -1.70171,-1.01166 v -6.97496 l 1.59535,-1.13589 0.0712,0.24862 0.0341,0.26605 v 8.60779 m -0.31801,-9.49514 -1.77263,1.24232 -6.66501,0.70992 -0.74453,-0.83413 0.74453,-0.86968 7.17908,-0.76315 h 0.35439 l 0.33691,0.10662 0.30122,0.15979 0.26588,0.24859 m -4.09458,9.05119 -4.09478,-1.11812 -0.51406,-0.94067 v -0.40818 l 2.33987,0.15977 4.55564,1.31334 v 0.76317 l -2.28667,0.23077 m -4.60884,-2.89301 v -0.55021 l 2.94256,-0.79865 3.95295,-0.46145 v 1.66832 l -3.47435,0.39048 -3.42116,-0.24861 m 0,-1.189 0.74452,-1.20688 3.22618,-1.77477 2.92481,-0.30176 v 0.74542 l -3.24391,1.75708 -3.6516,0.97615 v -0.19508 m -0.58494,0.14183 0.4609,-0.76318 v -2.18299 l -0.63817,-0.7277 -0.90401,1.0649 v 1.70382 l 0.4786,0.9584 0.60268,-0.0531 m 0.58494,0.51456 v 0.51468 m -9.25304,121.73376 -0.35438,-0.019 -0.35438,-0.0889 -0.30122,-0.17762 -0.24803,-0.24859 1.66627,-1.22461 6.91321,-0.72768 0.70903,0.81641 -0.77997,0.90515 -7.24998,0.76318 m -2.42903,-95.16334 v -1.72158 l 1.70169,-0.17762 v 1.72157 l -1.70169,0.17763 m 23.52262,60.44978 v 1.70383 m -2.76528,0.49692 0.53179,-0.23074 0.53179,-0.17763 0.56725,-0.0889 0.5672,-0.0341 0.56725,0.0341 m -2.76528,0.49722 0.0885,-0.3727 0.15954,-0.3727 0.19486,-0.31957 0.23056,-0.30173 0.28373,-0.26643 0.3369,-0.23076 0.33693,-0.15979 0.37224,-0.10663 0.38998,-0.0711 h 0.37224 m -1.4e-4,-16.45186 v 1.70381 m -2.76528,0.49692 0.53179,-0.24859 0.53178,-0.1598 0.56726,-0.10663 0.5672,-0.019 0.56725,0.034 m -2.76528,0.49987 0.0884,-0.39043 0.15955,-0.35486 0.19486,-0.33702 0.23056,-0.30172 0.28373,-0.26645 0.3369,-0.21291 0.33692,-0.15981 0.37225,-0.12408 0.38997,-0.0531 h 0.37225 m -1.4e-4,-16.45278 v 1.70382 m -2.76529,0.47919 0.5318,-0.23075 0.53178,-0.15978 0.56725,-0.10665 0.5672,-0.034 0.56726,0.053 m -2.76529,0.47821 0.0885,-0.3727 0.15955,-0.35487 0.19486,-0.33704 0.23055,-0.30171 0.28373,-0.26605 0.33691,-0.21292 0.33692,-0.17763 0.37224,-0.10663 0.38998,-0.0531 h 0.37224 m -1.4e-4,-16.4705 v 1.7038 m -2.76528,0.49698 0.5318,-0.23077 0.53178,-0.17761 0.56725,-0.0889 0.5672,-0.0341 0.56725,0.0341 m -2.76528,0.49724 0.0885,-0.37271 0.15955,-0.37269 0.19485,-0.33705 0.23056,-0.30173 0.28373,-0.24858 0.33691,-0.23076 0.33692,-0.15977 0.37224,-0.12412 0.38998,-0.0531 h 0.37224 m -1.4e-4,-16.45268 v 1.7038 m -2.76528,0.49695 0.53179,-0.24859 0.53178,-0.15977 0.56726,-0.10663 0.5672,-0.0341 0.56725,0.0531 m -2.76528,0.49603 0.0884,-0.39047 0.15955,-0.35485 0.19486,-0.33702 0.23055,-0.30174 0.28374,-0.26604 0.3369,-0.21293 0.33693,-0.17763 0.37224,-0.10663 0.38998,-0.0531 h 0.37224 m -23.5228,-11.09282 v -1.70382 l 1.70169,-0.17763 v 1.70382 l -1.70169,0.17763 m 0,-16.45246 v -1.72155 l 1.70169,-0.17763 v 1.72155 l -1.70169,0.17763 m 23.52262,11.07479 v 1.7038 m -2.76529,0.49696 0.5318,-0.23075 0.53178,-0.17762 0.56725,-0.0889 0.56721,-0.0341 0.56725,0.0341 m -2.76529,0.49724 0.0883,-0.37271 0.15955,-0.3727 0.19485,-0.31956 0.23055,-0.30173 0.28373,-0.26605 0.33692,-0.21292 0.33693,-0.17763 0.37223,-0.10663 0.38999,-0.0711 h 0.37223 m -13.79109,24.24398 -6.36368,0.67441 -2.07398,-1.18913 0.23054,-0.19507 0.28374,-0.1241 0.30122,-0.0711 7.90586,-0.83418 0.62044,0.67443 -0.90405,1.06489 m -0.30146,1.84556 0.49635,0.94063 v 0.39047 l -2.35756,-0.0889 -4.59109,-1.2779 v -0.67438 l 2.83621,-0.30174 3.61609,1.01166 m -6.4523,2.12986 3.79339,-0.47919 3.15526,0.10664 v 0.65666 l -3.6161,0.99389 -3.33255,0.33704 v -1.6151 m 3.43889,1.68609 3.50976,-0.95834 v 0.46143 l -0.4786,0.81642 -3.77569,2.00549 -2.69436,0.28388 v -0.78088 l 3.43889,-1.82808 m -5.56606,-5.16456 v 8.55454 m 0.10631,0.51468 -0.0712,-0.24859 -0.0342,-0.26605 m 0.10532,0.51464 1.59539,-1.17136 v -7.20571 l -1.66627,-0.95838 -0.0342,0.26607 m 10.26224,4.13544 0.44315,0.85189 v 2.0588 l -0.81541,0.94062 -0.72676,-0.85188 v -1.77482 l 0.67356,-1.17137 0.42546,-0.0531 m 0.51403,4.86282 -0.60268,-0.69219 0.92178,-1.04713 6.66503,-0.70992 1.87896,1.13586 -0.15952,0.17763 -0.19486,0.14194 -0.21272,0.10664 -0.24802,0.053 -8.04767,0.83419 m 9.0755,-2.18312 -1.7017,-1.01166 v -6.97497 l 1.59536,-1.13588 0.0712,0.24859 0.0341,0.26646 v 8.60777 m -0.318,-9.49555 -1.77264,1.24238 -6.66502,0.70991 -0.74453,-0.83413 0.74453,-0.8874 7.17909,-0.74545 h 0.35439 l 0.33691,0.0889 0.30122,0.17763 0.26587,0.24861 m -4.09457,9.05111 -4.09477,-1.11815 -0.51408,-0.94061 v -0.4082 l 2.33988,0.15978 4.55565,1.31335 v 0.76317 l -2.28668,0.23075 m -4.60885,-2.91077 v -0.53244 l 2.94256,-0.79866 3.95297,-0.46143 v 1.66831 l -3.47437,0.37271 -3.42116,-0.2486 m 0,-1.17124 0.74453,-1.20688 3.22618,-1.77479 2.92482,-0.30173 v 0.74542 l -3.24392,1.73933 -3.65161,0.99388 v -0.19508 m -0.58494,0.14183 0.4609,-0.76316 v -2.18301 l -0.63817,-0.72769 -0.904,1.06491 v 1.70379 l 0.47861,0.95841 0.60266,-0.0531 m 0.58494,0.51454 v 0.5147 m -11.6815,26.55104 v -1.70379 l 1.70168,-0.17763 v 1.70379 l -1.70168,0.17763 m 0,32.92262 v -1.70382 l 1.70168,-0.17764 v 1.70382 l -1.70168,0.17764 m 0,-16.45242 v -1.72156 l 1.70168,-0.17763 v 1.72153 l -1.70168,0.17763 m 0,-32.92258 v -1.70383 l 1.70168,-0.17762 v 1.70381 l -1.70168,0.17761 m 11.6815,38.76175 v 0.51467 m -9.25302,-9.9389 -0.35439,-0.019 -0.35438,-0.0889 -0.30122,-0.17762 -0.24803,-0.2486 1.66626,-1.22461 6.91322,-0.72768 0.70902,0.81642 -0.77994,0.90514 -7.25001,0.76317 m 7.30266,-10.46975 -6.3637,0.67444 -2.07398,-1.1891 0.23054,-0.1951 0.28375,-0.14195 0.3012,-0.0711 7.90587,-0.81642 0.62045,0.67443 -0.90406,1.06487 m -0.30145,1.84563 0.49634,0.94064 v 0.39048 l -2.35757,-0.0889 -4.59108,-1.27784 v -0.6744 l 2.83622,-0.30172 3.61609,1.01163 m -6.45231,2.12985 3.79339,-0.47921 3.15526,0.10664 v 0.65668 l -3.61611,0.99389 -3.33254,0.3374 v -1.61505 m 3.43889,1.68569 3.50976,-0.97613 v 0.47921 l -0.47858,0.8164 -3.7757,2.0055 -2.69437,0.28389 v -0.78088 l 3.43889,-1.82807 m -5.56604,-5.1646 v 8.55455 m 0.1063,0.51471 -0.0712,-0.24861 -0.0342,-0.26606 m 0.10531,0.51467 1.59538,-1.17135 v -7.20574 l -1.66627,-0.95837 -0.0342,0.26606 m 10.26224,4.13543 0.44317,0.85192 v 2.05877 l -0.81544,0.94065 -0.72674,-0.85191 v -1.77482 l 0.67357,-1.18912 0.42544,-0.034 m 0.51404,4.86161 -0.6027,-0.69217 0.92181,-1.04715 6.66502,-0.70993 1.87896,1.13589 -0.15952,0.17762 -0.19485,0.14195 -0.21272,0.10664 -0.24804,0.034 -8.04765,0.85192 m 9.0755,-2.18189 -1.70171,-1.02941 v -6.97472 l 1.59534,-1.11812 0.0712,0.24859 0.0341,0.26644 v 8.6078 m -0.31802,-9.49556 -1.77261,1.24235 -6.66503,0.70993 -0.74452,-0.83414 0.74452,-0.88739 7.17909,-0.74545 h 0.35438 l 0.33692,0.0889 0.30121,0.17762 0.26589,0.24859 m -4.0946,9.05116 -4.09475,-1.11816 -0.51407,-0.95836 v -0.40822 l 2.33987,0.17762 4.55564,1.31337 v 0.74542 l -2.28669,0.24859 m -4.60882,-2.91096 v -0.55018 l 2.94256,-0.78092 3.95295,-0.4792 v 1.68608 l -3.47437,0.3727 -3.42114,-0.24859 m 0,-1.17125 0.74453,-1.20688 3.22617,-1.77478 2.92481,-0.31957 v 0.76317 l -3.24393,1.73932 -3.65158,0.9939 v -0.19508 m -0.58495,0.14192 0.46091,-0.76318 V 687.394 l -0.63817,-0.70991 -0.90402,1.06491 v 1.70378 l 0.47861,0.95841 0.60267,-0.0531 m 0.58495,0.51455 v 0.51469 m -9.25303,-26.40908 h -0.35439 l -0.3544,-0.10663 -0.30121,-0.17763 -0.24801,-0.24859 1.66626,-1.22461 6.91321,-0.72769 0.70901,0.81643 -0.77993,0.90513 -7.25001,0.76317 m 8.66755,8.90995 0.46091,-0.76316 v -2.183 l -0.63817,-0.70991 -0.90402,1.06483 v 1.70382 l 0.47861,0.9584 0.60267,-0.0711 m 0.58495,0.51471 v 0.5324 m -9.25303,39.41841 h -0.35439 l -0.3544,-0.10665 -0.30121,-0.1776 -0.24801,-0.24862 1.66626,-1.22459 6.91321,-0.72768 0.70901,0.81642 -0.77993,0.90516 -7.25001,0.76315 m 7.30265,-10.47094 -6.3637,0.67443 -2.07396,-1.18912 0.23053,-0.19507 0.28374,-0.12412 0.30122,-0.0711 7.90587,-0.83413 0.62043,0.67443 -0.90404,1.06487 m -0.30146,1.84548 0.49635,0.95841 v 0.39046 l -2.35758,-0.0889 -4.59108,-1.29562 v -0.67442 l 2.83621,-0.30173 3.6161,1.0116 m -6.45231,2.12993 3.7934,-0.47919 3.15526,0.12412 v 0.63892 l -3.61613,0.99391 -3.33253,0.33703 v -1.61507 m 3.43889,1.68636 3.50977,-0.95842 v 0.46144 l -0.4786,0.81641 -3.77569,2.00552 -2.69437,0.28391 v -0.78092 l 3.43889,-1.82803 m -5.56605,-5.16459 v 8.57229 m 0.10631,0.49694 -0.0712,-0.24859 -0.0342,-0.2486 m 0.10532,0.49719 1.59539,-1.17138 v -7.20569 l -1.66627,-0.9584 -0.0342,0.26642 m 10.26223,4.13511 0.44316,0.85191 v 2.05874 l -0.81543,0.94068 -0.72674,-0.85194 v -1.75706 l 0.67356,-1.18911 0.42545,-0.0531 m 0.51404,4.88059 -0.60269,-0.69219 0.92179,-1.06485 6.66502,-0.6922 1.87896,1.11816 -0.15952,0.17759 -0.19484,0.14196 -0.21274,0.10663 -0.24802,0.0531 -8.04766,0.85189 m 9.0755,-2.20088 -1.70169,-1.01166 v -6.97497 l 1.59533,-1.13587 0.0712,0.24861 0.0341,0.26604 v 8.60781 m -0.31801,-9.49515 -1.77262,1.24236 -6.66502,0.70992 -0.74453,-0.83415 0.74453,-0.86967 7.17908,-0.76315 h 0.3544 l 0.3369,0.10664 0.30122,0.15979 0.26588,0.2486 m -4.09458,9.05118 -4.09478,-1.11817 -0.51406,-0.94063 v -0.40824 l 2.33988,0.15979 4.55563,1.31335 v 0.76317 l -2.28667,0.23076 m -4.60884,-2.89299 v -0.5502 l 2.94256,-0.79865 3.95295,-0.46143 v 1.66827 l -3.47435,0.39047 -3.42116,-0.2486 m 0,-1.189 0.74453,-1.20684 3.22618,-1.77481 2.9248,-0.30175 v 0.74542 l -3.24391,1.75705 -3.6516,0.97612 v -0.19507 m -0.58494,0.14188 0.4609,-0.76314 v -2.18304 l -0.63817,-0.72766 -0.904,1.06486 v 1.70385 l 0.4786,0.95836 0.60267,-0.0531 m -11.09657,27.59804 v -1.72155 l 1.70169,-0.17761 v 1.72156 l -1.70169,0.17763 m 23.52261,11.07473 v 1.70381 m -2.76528,0.49697 0.5318,-0.23077 0.53178,-0.17759 0.56725,-0.0889 0.5672,-0.0341 0.56725,0.0341 m -2.76528,0.49722 0.0884,-0.37271 0.15954,-0.37271 0.19486,-0.33701 0.23055,-0.30173 0.28374,-0.24859 0.3369,-0.23076 0.33693,-0.15979 0.37224,-0.12412 0.38998,-0.053 h 0.37224 m -21.09426,-64.05236 h -0.35438 l -0.35438,-0.0889 -0.30122,-0.19509 -0.24802,-0.2486 1.66626,-1.22461 6.91321,-0.72767 0.70903,0.83415 -0.77995,0.88743 -7.25001,0.76317 m 7.30266,-10.47129 -6.3637,0.67445 -2.07399,-1.18912 0.23055,-0.19511 0.28374,-0.1241 0.30122,-0.0711 7.90587,-0.83412 0.62044,0.69215 -0.90405,1.04714 m -0.30146,1.86325 0.49635,0.94064 v 0.39047 l -2.35756,-0.0889 -4.5911,-1.29562 v -0.67443 l 2.83622,-0.28389 3.61609,1.01164 m -6.45231,2.12981 3.7934,-0.49692 3.15526,0.1241 v 0.63895 l -3.61611,0.99388 -3.33255,0.33703 v -1.5973 m 3.43889,1.68634 3.50977,-0.97616 v 0.46143 l -0.47859,0.8164 -3.7757,2.02332 -2.69437,0.26605 v -0.78088 l 3.43889,-1.81031 m -5.56605,-5.1823 v 8.57231 m 0.10642,0.49695 -0.0712,-0.2486 -0.0342,-0.2486 m 0.10532,0.4972 1.59538,-1.1714 v -7.18792 l -1.66627,-0.97617 -0.0342,0.26644 m 10.26223,4.15281 0.44317,0.8342 v 2.05874 l -0.81543,0.94067 -0.72675,-0.8519 v -1.75706 l 0.67357,-1.18911 0.42544,-0.034 m 0.51403,4.86157 -0.60268,-0.69221 0.92179,-1.06485 6.66502,-0.6922 1.87897,1.11814 -0.15953,0.17764 -0.19486,0.15977 -0.21271,0.0889 -0.24802,0.0531 -8.04766,0.85193 m 9.07548,-2.20096 -1.70169,-1.0116 v -6.97501 l 1.59535,-1.13586 0.0712,0.26642 0.0341,0.26605 v 8.59005 m -0.318,-9.49522 -1.77263,1.26011 -6.66502,0.69216 -0.74452,-0.83416 0.74452,-0.86964 7.17909,-0.76317 0.35438,0.019 0.33691,0.0889 0.30122,0.17762 0.26588,0.23077 m -4.09458,9.0677 -4.09477,-1.1181 -0.51407,-0.9584 v -0.40821 l 2.33987,0.15979 4.55565,1.31339 v 0.76312 l -2.28668,0.24861 m -4.60884,-2.91088 v -0.55018 l 2.94256,-0.78089 3.95296,-0.47921 v 1.6683 l -3.47436,0.39045 -3.42116,-0.2486 m 0,-1.17124 0.74454,-1.20683 3.22616,-1.79259 2.92482,-0.30171 v 0.74539 l -3.24392,1.75706 -3.6516,0.9761 v -0.17788 m -1.94983,46.58877 -6.36371,0.65671 -2.07398,-1.18912 0.23056,-0.17763 0.28374,-0.14195 0.30121,-0.0711 7.90587,-0.83417 0.62043,0.69218 -0.90405,1.06487 m -0.30145,1.84592 0.49634,0.94064 v 0.39045 l -2.35756,-0.0889 -4.59109,-1.27787 v -0.67442 l 2.83622,-0.30174 3.61609,1.01165 m -6.45231,2.12987 3.7934,-0.49696 3.15525,0.12411 v 0.63892 l -3.61611,0.99387 -3.33254,0.33704 v -1.59732 m 3.4389,1.6864 3.50975,-0.97614 v 0.46144 l -0.47857,0.81643 -3.77571,2.02326 -2.69437,0.28389 v -0.78089 l 3.4389,-1.82807 m -5.56604,-5.16459 v 8.55456 m 0.1063,0.51468 -0.0712,-0.24859 -0.0342,-0.26606 m 0.10531,0.51465 1.59538,-1.17136 v -7.20574 l -1.66626,-0.95835 -0.0342,0.26605 m 10.26223,4.13545 0.44315,0.85189 v 2.04103 l -0.81542,0.9584 -0.72675,-0.86967 v -1.75703 l 0.67357,-1.18913 0.42545,-0.034 m 0.51404,4.86162 -0.6027,-0.69219 0.92181,-1.04715 6.66501,-0.70992 1.87897,1.11815 -0.15953,0.1951 -0.19485,0.14192 -0.21271,0.0889 -0.24804,0.053 -8.04766,0.85194 m 9.0755,-2.18286 -1.70169,-1.02939 v -6.97496 l 1.59533,-1.13588 0.0712,0.26606 0.0341,0.26644 v 8.60775 m -0.31801,-9.49522 -1.77262,1.24236 -6.66502,0.6922 -0.74452,-0.83416 0.74452,-0.86968 7.17909,-0.76312 0.35437,0.019 0.33693,0.0889 0.30121,0.17762 0.26589,0.24859 m -4.09458,9.04987 -4.09478,-1.11814 -0.51406,-0.95837 v -0.40821 l 2.33986,0.17762 4.55565,1.31338 v 0.74539 l -2.28667,0.2486 m -4.60884,-2.91094 v -0.55018 l 2.94256,-0.78094 3.95295,-0.47919 v 1.68608 l -3.47435,0.37271 -3.42116,-0.24859 m 0,-1.17126 0.74453,-1.20687 3.22616,-1.77479 2.92482,-0.31957 v 0.74546 l -3.24392,1.75703 -3.65159,0.97614 v -0.17763 m -0.58495,0.12446 0.46089,-0.76317 v -2.18271 l -0.63815,-0.70991 -0.90402,1.06491 v 1.70378 l 0.4786,0.95841 0.60268,-0.0711 m 0.58495,0.53241 v 0.51469 m 11.8411,4.721 v 1.7038 m -2.76529,0.4792 0.5318,-0.23075 0.53179,-0.1598 0.56723,-0.10662 0.56721,-0.034 0.56726,0.0531 m -2.76529,0.4782 0.0884,-0.3727 0.15955,-0.35486 0.19485,-0.33704 0.23054,-0.30174 0.28375,-0.26603 0.33691,-0.21292 0.33692,-0.17763 0.37224,-0.10663 0.38998,-0.0531 h 0.37223 m -21.09426,-80.50542 -0.35439,-0.019 -0.35438,-0.0889 -0.30121,-0.17764 -0.24803,-0.24858 1.66626,-1.22464 6.91322,-0.72766 0.709,0.81643 -0.77993,0.8874 -7.25,0.78088 m 7.30264,-10.46968 -6.36369,0.65669 -2.07399,-1.18913 0.23056,-0.17763 0.28375,-0.14194 0.3012,-0.0711 7.90587,-0.83415 0.62043,0.69215 -0.90404,1.06491 m -0.30145,1.84589 0.49634,0.94062 v 0.39046 l -2.35755,-0.0889 -4.59111,-1.27786 v -0.67442 l 2.83622,-0.30173 3.6161,1.01165 m -6.45232,2.12986 3.7934,-0.49691 3.15526,0.1241 v 0.63896 l -3.61611,0.99386 -3.33255,0.33705 v -1.59735 m 3.4389,1.68638 3.50976,-0.97617 v 0.46149 l -0.47859,0.81637 -3.77569,2.0233 -2.69438,0.28391 v -0.78094 l 3.4389,-1.82802 m -5.56605,-5.16465 v 8.55456 m 0.10631,0.5147 -0.0712,-0.2486 -0.0342,-0.26643 m 0.10532,0.51503 1.59538,-1.17137 v -7.20569 l -1.66626,-0.9584 -0.0342,0.26605 m 10.26225,4.13546 0.44314,0.85189 v 2.04104 l -0.8154,0.95839 -0.72676,-0.86962 v -1.75706 l 0.67356,-1.18912 0.42546,-0.034 m 0.51403,4.86158 -0.60268,-0.69216 0.92177,-1.04713 6.66504,-0.70993 1.87896,1.11812 -0.15952,0.19509 -0.19486,0.14194 -0.21271,0.0889 -0.24803,0.0531 -8.04767,0.85191 m 9.0755,-2.1828 -1.70169,-1.02937 v -6.97502 l 1.59535,-1.13586 0.0712,0.26644 0.0341,0.26605 v 8.6078 m -0.31801,-9.49523 -1.77263,1.24237 -6.66503,0.69216 -0.74451,-0.83415 0.74451,-0.86965 7.1791,-0.76318 0.35439,0.019 0.33692,0.0889 0.30121,0.17763 0.26587,0.2486 m -4.09457,9.04986 -4.09477,-1.11811 -0.51407,-0.9584 v -0.40819 l 2.33987,0.17763 4.55564,1.31335 v 0.74542 l -2.28667,0.2486 m -4.60884,-2.91095 v -0.5502 l 2.94255,-0.78089 3.95296,-0.47922 v 1.68606 l -3.47435,0.37271 -3.42116,-0.2486 m 0,-1.17125 0.74452,-1.20684 3.22618,-1.77483 2.92481,-0.31957 v 0.7631 l -3.24391,1.73929 -3.6516,0.97613 v -0.17763 m -0.58496,0.12453 0.4609,-0.76318 v -2.18299 l -0.63815,-0.70991 -0.90401,1.06484 v 1.70381 l 0.47861,0.95839 0.60265,-0.0711 m 0.58496,0.53242 v 0.51472 m -9.25304,88.81113 -0.35439,-0.019 -0.35437,-0.0889 -0.30122,-0.17762 -0.24803,-0.2486 1.66628,-1.22461 6.9132,-0.72769 0.70903,0.81642 -0.77996,0.88739 -7.25,0.78094"
       inkscape:transform-center-x="-41.42815"
       inkscape:transform-center-y="121.28313" />
    <rect
       style="fill:none;stroke:#ffcc00;stroke-width:0.056693;stroke-dasharray:none;stop-color:#000000"
       id="rect21132"
       width="62.362206"
       height="147.40158"
       x="135.41528"
       y="-756.0119"
       transform="scale(1,-1)" />
  </g>
</svg>
